<svg width="70" height="70" viewBox="0 0 70 70" fill="none" xmlns="http://www.w3.org/2000/svg">
<mask id="mask0_43_61" style="mask-type:alpha" maskUnits="userSpaceOnUse" x="0" y="0" width="70" height="70">
<rect width="70" height="70" fill="#D9D9D9"/>
</mask>
<g mask="url(#mask0_43_61)">
<path d="M30.625 29.1668C31.8403 29.1668 32.8728 28.7409 33.7225 27.8893C34.5742 27.0395 35 26.007 35 24.7918C35 23.5765 34.5742 22.544 33.7225 21.6943C32.8728 20.8426 31.8403 20.4168 30.625 20.4168C29.4097 20.4168 28.3772 20.8426 27.5275 21.6943C26.6758 22.544 26.25 23.5765 26.25 24.7918C26.25 26.007 26.6758 27.0395 27.5275 27.8893C28.3772 28.7409 29.4097 29.1668 30.625 29.1668ZM24.7917 43.7501C26.0069 43.7501 27.0394 43.3243 27.8892 42.4726C28.7408 41.6229 29.1667 40.5904 29.1667 39.3751C29.1667 38.1598 28.7408 37.1273 27.8892 36.2776C27.0394 35.4259 26.0069 35.0001 24.7917 35.0001C23.5764 35.0001 22.5439 35.4259 21.6942 36.2776C20.8425 37.1273 20.4167 38.1598 20.4167 39.3751C20.4167 40.5904 20.8425 41.6229 21.6942 42.4726C22.5439 43.3243 23.5764 43.7501 24.7917 43.7501ZM43.75 46.6668C44.5764 46.6668 45.2696 46.3868 45.8296 45.8268C46.3876 45.2687 46.6667 44.5765 46.6667 43.7501C46.6667 42.9237 46.3876 42.2305 45.8296 41.6705C45.2696 41.1125 44.5764 40.8334 43.75 40.8334C42.9236 40.8334 42.2314 41.1125 41.6733 41.6705C41.1133 42.2305 40.8333 42.9237 40.8333 43.7501C40.8333 44.5765 41.1133 45.2687 41.6733 45.8268C42.2314 46.3868 42.9236 46.6668 43.75 46.6668ZM35 64.1668C30.9653 64.1668 27.1736 63.4007 23.625 61.8684C20.0764 60.3382 16.9896 58.2605 14.3646 55.6355C11.7396 53.0105 9.66195 49.9237 8.13167 46.3751C6.59945 42.8265 5.83334 39.0348 5.83334 35.0001C5.83334 30.9168 6.70834 26.9307 8.45834 23.0418C10.2083 19.1529 12.6515 15.7987 15.7879 12.9793C18.9224 10.1598 22.6411 8.09385 26.9442 6.78135C31.2453 5.46885 35.9479 5.34733 41.0521 6.41677C40.6146 8.60427 40.7604 10.6576 41.4896 12.5768C42.2188 14.4979 43.3125 16.1147 44.7708 17.4272C46.2292 18.7397 47.9549 19.639 49.9479 20.1251C51.941 20.6112 54.0313 20.4897 56.2188 19.7605C54.7118 23.1147 54.9792 25.9827 57.0208 28.3647C59.0625 30.7466 61.3958 31.9862 64.0208 32.0834C64.4583 36.4098 63.9965 40.5175 62.6354 44.4064C61.2743 48.2952 59.2696 51.698 56.6213 54.6147C53.971 57.5313 50.7869 59.853 47.0692 61.5797C43.3494 63.3044 39.3264 64.1668 35 64.1668ZM35 58.3334C40.9306 58.3334 46.1932 56.2918 50.7879 52.2084C55.3807 48.1251 57.8958 42.9237 58.3333 36.6043C55.9028 35.5348 53.9953 34.0765 52.6108 32.2293C51.2244 30.382 50.2882 28.3161 49.8021 26.0314C46.059 25.4966 42.8507 23.8925 40.1771 21.2189C37.5035 18.5452 35.8507 15.3369 35.2188 11.5939C31.3299 11.4966 27.9144 12.2015 24.9725 13.7084C22.0325 15.2154 19.5786 17.1472 17.6108 19.5039C15.6411 21.8625 14.1585 24.4272 13.1629 27.198C12.1654 29.9689 11.6667 32.5695 11.6667 35.0001C11.6667 41.4654 13.9397 46.9711 18.4858 51.5172C23.03 56.0614 28.5347 58.3334 35 58.3334Z" fill="white"/>
</g>
</svg>
