<svg width="64" height="64" viewBox="0 0 64 64" fill="none" xmlns="http://www.w3.org/2000/svg">
<mask id="mask0_34_80" style="mask-type:alpha" maskUnits="userSpaceOnUse" x="0" y="0" width="64" height="64">
<rect width="64" height="64" fill="#D9D9D9"/>
</mask>
<g mask="url(#mask0_34_80)">
<path d="M24 38C23.0667 38 22.2783 37.6774 21.6347 37.032C20.9894 36.3885 20.6667 35.6 20.6667 34.6667C20.6667 33.7334 20.9894 32.9449 21.6347 32.3014C22.2783 31.656 23.0667 31.3334 24 31.3334C24.9334 31.3334 25.7218 31.656 26.3654 32.3014C27.0107 32.9449 27.3334 33.7334 27.3334 34.6667C27.3334 35.6 27.0107 36.3885 26.3654 37.032C25.7218 37.6774 24.9334 38 24 38ZM40 38C39.0667 38 38.2783 37.6774 37.6347 37.032C36.9894 36.3885 36.6667 35.6 36.6667 34.6667C36.6667 33.7334 36.9894 32.9449 37.6347 32.3014C38.2783 31.656 39.0667 31.3334 40 31.3334C40.9334 31.3334 41.7218 31.656 42.3654 32.3014C43.0107 32.9449 43.3334 33.7334 43.3334 34.6667C43.3334 35.6 43.0107 36.3885 42.3654 37.032C41.7218 37.6774 40.9334 38 40 38ZM32 53.3334C37.9556 53.3334 43 51.2667 47.1334 47.1334C51.2667 43 53.3334 37.9556 53.3334 32C53.3334 30.9334 53.2667 29.8996 53.1334 28.8987C53 27.8996 52.7556 26.9334 52.4 26C51.4667 26.2223 50.5334 26.3894 49.6 26.5014C48.6667 26.6116 47.6889 26.6667 46.6667 26.6667C42.6223 26.6667 38.8 25.8 35.2 24.0667C31.6 22.3334 28.5334 19.9112 26 16.8C24.5778 20.2667 22.5449 23.2783 19.9014 25.8347C17.256 28.3894 14.1778 30.3112 10.6667 31.6V32C10.6667 37.9556 12.7334 43 16.8667 47.1334C21 51.2667 26.0445 53.3334 32 53.3334ZM32 58.6667C28.3111 58.6667 24.8445 57.9663 21.6 56.5654C18.3556 55.1663 15.5334 53.2667 13.1334 50.8667C10.7334 48.4667 8.83382 45.6445 7.43471 42.4C6.03382 39.1556 5.33337 35.6889 5.33337 32C5.33337 28.3111 6.03382 24.8445 7.43471 21.6C8.83382 18.3556 10.7334 15.5334 13.1334 13.1334C15.5334 10.7334 18.3556 8.83293 21.6 7.43204C24.8445 6.03293 28.3111 5.33337 32 5.33337C35.6889 5.33337 39.1556 6.03293 42.4 7.43204C45.6445 8.83293 48.4667 10.7334 50.8667 13.1334C53.2667 15.5334 55.1663 18.3556 56.5654 21.6C57.9663 24.8445 58.6667 28.3111 58.6667 32C58.6667 35.6889 57.9663 39.1556 56.5654 42.4C55.1663 45.6445 53.2667 48.4667 50.8667 50.8667C48.4667 53.2667 45.6445 55.1663 42.4 56.5654C39.1556 57.9663 35.6889 58.6667 32 58.6667Z" fill="#1C1B1F"/>
</g>
</svg>
