<svg width="70" height="70" viewBox="0 0 70 70" fill="none" xmlns="http://www.w3.org/2000/svg">
<path d="M8.02083 59.0625H61.9792C64.7981 59.0625 67.0833 56.7773 67.0833 53.9583V16.0417C67.0833 13.2227 64.7981 10.9375 61.9792 10.9375H8.02083C5.20187 10.9375 2.91666 13.2227 2.91666 16.0417V53.9583C2.91666 56.7773 5.20187 59.0625 8.02083 59.0625Z" fill="#E0E0E0"/>
<path d="M37.9167 59.0625H61.9792C64.7981 59.0625 67.0833 56.7773 67.0833 53.9583V16.0417C67.0833 13.2227 64.7981 10.9375 61.9792 10.9375H8.02083C5.20187 10.9375 2.91666 13.2227 2.91666 16.0417L37.9167 59.0625Z" fill="#D9D9D9"/>
<path d="M9.83646 59.0624H61.9792C64.7981 59.0624 67.0833 56.7772 67.0833 53.9583V16.7708L9.83646 59.0624Z" fill="#EEEEEE"/>
<path d="M37.5448 59.0624H61.9792C64.7981 59.0624 67.0833 56.7772 67.0833 53.9583V16.7708L27.3744 46.1066L37.5448 59.0624Z" fill="#E0E0E0"/>
<path d="M61.9792 13.8541H8.02083C5.20187 13.8541 2.91666 13.2227 2.91666 16.0416V53.9583C2.91666 56.7773 5.20187 59.0625 8.02083 59.0625H10.2083V17.5H59.7917V59.0625H61.9792C64.7981 59.0625 67.0833 56.7773 67.0833 53.9583V16.0416C67.0833 13.2227 64.7981 13.8541 61.9792 13.8541Z" fill="#CA3737"/>
<path d="M61.9792 10.9375H35H8.02083C5.20187 10.9375 2.91666 13.1775 2.91666 16.0417C2.91666 17.8004 5.13041 19.3346 5.13041 19.3346L35 40.4775L64.8696 19.336C64.8696 19.336 67.0833 17.8004 67.0833 16.0431C67.0833 13.1775 64.7981 10.9375 61.9792 10.9375Z" fill="#F5F5F5"/>
<path d="M63.0671 11.0571L35 30.625L6.93291 11.0571C4.6375 11.5486 2.91666 13.5582 2.91666 16.0417C2.91666 17.8005 5.13041 19.3346 5.13041 19.3346L35 40.4775L64.8696 19.3361C64.8696 19.3361 67.0833 17.8005 67.0833 16.0432C67.0833 13.5582 65.3625 11.5486 63.0671 11.0571Z" fill="#E84F4B"/>
</svg>
