<svg width="70" height="70" viewBox="0 0 70 70" fill="none" xmlns="http://www.w3.org/2000/svg">
<g clip-path="url(#clip0_33_629)">
<path d="M35 68.6328C53.5749 68.6328 68.6328 53.5749 68.6328 35C68.6328 16.4251 53.5749 1.36719 35 1.36719C16.4251 1.36719 1.36719 16.4251 1.36719 35C1.36719 53.5749 16.4251 68.6328 35 68.6328Z" fill="#F2E4FF"/>
<path fill-rule="evenodd" clip-rule="evenodd" d="M35.0718 63.6343V59.3915C48.5114 59.3527 59.3935 48.4483 59.3935 34.999C59.3935 21.5507 48.5114 10.6463 35.0718 10.6075V6.36469C50.8545 6.40447 63.6353 19.2076 63.6353 34.999C63.6353 50.7914 50.8545 63.5955 35.0718 63.6343ZM35.0718 48.784C42.6522 48.7442 48.7879 42.5901 48.7879 34.999C48.7879 27.4089 42.6522 21.2548 35.0718 21.215V16.9732C44.9963 17.012 53.0307 25.0658 53.0307 34.999C53.0307 44.9332 44.9963 52.9871 35.0718 53.0259V48.784ZM35.0718 27.5787C39.138 27.6175 42.4242 30.9231 42.4242 34.999C42.4242 39.0759 39.138 42.3815 35.0718 42.4203V27.5787ZM0 34.999C0 54.3298 15.6692 70 35 70C54.3298 70 70 54.3298 70 34.999C70 15.6692 54.3298 0 35 0C15.6692 0 0 15.6692 0 34.999Z" fill="url(#paint0_linear_33_629)"/>
<g filter="url(#filter0_d_33_629)">
<path d="M35 3.96484C17.5577 3.96484 3.41797 18.0434 3.41797 35.4102C3.41797 52.7769 17.5577 66.8555 35 66.8555V3.96484Z" fill="black"/>
</g>
<path d="M35 3.96484C17.5577 3.96484 3.41797 18.0434 3.41797 35.4102C3.41797 52.7769 17.5577 66.8555 35 66.8555V3.96484Z" fill="url(#paint1_linear_33_629)"/>
</g>
<defs>
<filter id="filter0_d_33_629" x="-24.582" y="-16.0352" width="71.582" height="102.891" filterUnits="userSpaceOnUse" color-interpolation-filters="sRGB">
<feFlood flood-opacity="0" result="BackgroundImageFix"/>
<feColorMatrix in="SourceAlpha" type="matrix" values="0 0 0 0 0 0 0 0 0 0 0 0 0 0 0 0 0 0 127 0" result="hardAlpha"/>
<feOffset dx="-8"/>
<feGaussianBlur stdDeviation="10"/>
<feColorMatrix type="matrix" values="0 0 0 0 0.25098 0 0 0 0 0.25098 0 0 0 0 0.25098 0 0 0 0.2 0"/>
<feBlend mode="normal" in2="BackgroundImageFix" result="effect1_dropShadow_33_629"/>
<feBlend mode="normal" in="SourceGraphic" in2="effect1_dropShadow_33_629" result="shape"/>
</filter>
<linearGradient id="paint0_linear_33_629" x1="35" y1="70" x2="35" y2="0" gradientUnits="userSpaceOnUse">
<stop stop-color="#420C5D"/>
<stop offset="1" stop-color="#951AD1"/>
</linearGradient>
<linearGradient id="paint1_linear_33_629" x1="19.209" y1="66.8555" x2="19.209" y2="3.96484" gradientUnits="userSpaceOnUse">
<stop stop-color="#420C5D"/>
<stop offset="1" stop-color="#951AD1"/>
</linearGradient>
<clipPath id="clip0_33_629">
<rect width="70" height="70" fill="white"/>
</clipPath>
</defs>
</svg>
