<svg width="70" height="70" viewBox="0 0 70 70" fill="none" xmlns="http://www.w3.org/2000/svg">
<mask id="mask0_42_311" style="mask-type:alpha" maskUnits="userSpaceOnUse" x="0" y="0" width="70" height="70">
<rect width="70" height="70" fill="#D9D9D9"/>
</mask>
<g mask="url(#mask0_42_311)">
<path d="M5.83334 49.5832V8.74992C5.83334 7.92353 6.11334 7.23033 6.67334 6.67034C7.23139 6.11228 7.92361 5.83325 8.75 5.83325H46.6667C47.4931 5.83325 48.1853 6.11228 48.7433 6.67034C49.3033 7.23033 49.5833 7.92353 49.5833 8.74992V34.9999C49.5833 35.8263 49.3033 36.5185 48.7433 37.0766C48.1853 37.6366 47.4931 37.9166 46.6667 37.9166H17.5L5.83334 49.5832ZM20.4167 52.4999C19.5903 52.4999 18.8971 52.2199 18.3371 51.6599C17.779 51.1019 17.5 50.4096 17.5 49.5832V43.7499H55.4167V17.4999H61.25C62.0764 17.4999 62.7686 17.7789 63.3267 18.337C63.8867 18.897 64.1667 19.5902 64.1667 20.4166V64.1666L52.5 52.4999H20.4167ZM43.75 11.6666H11.6667V35.5103L15.0938 32.0833H43.75V11.6666Z" fill="white"/>
</g>
</svg>
