<svg width="70" height="70" viewBox="0 0 70 70" fill="none" xmlns="http://www.w3.org/2000/svg">
<path d="M59.7917 18.9583L61.25 24.7917L55.2854 48.6354C54.425 52.0625 52.3542 55.0667 49.4375 57.0792L37.4937 65.3625C36.75 65.8875 35.875 66.1354 35 66.1354C34.125 66.1354 33.25 65.8875 32.5063 65.3625L20.5625 57.0792C17.6458 55.0667 15.575 52.0625 14.7146 48.6354L8.75 24.7917L10.2083 18.9583L8.75 16.0417L13.4896 11.3021C15.0208 9.77083 17.2813 9.20208 19.3521 9.85833C19.4104 9.87292 19.4542 9.8875 19.4979 9.90208L20.4167 10.2083L26.25 4.375H43.75L49.5833 10.2083L50.5313 9.8875C51.7417 9.47917 53.0104 9.49375 54.1771 9.8875C55.0229 10.1646 55.825 10.6313 56.4813 11.2729C56.4958 11.2875 56.4958 11.2875 56.5104 11.3021L61.25 16.0417L59.7917 18.9583Z" fill="#FF651F"/>
<path d="M56.4812 11.2729L48.125 16.0417L35 18.9583L21.875 14.5833L18.8562 11.5646C18.0396 10.7479 16.8 10.4854 15.7208 10.9229L12.6437 12.1479L13.4896 11.3021C15.0208 9.77083 17.2812 9.20208 19.3521 9.85833C19.4104 9.87292 19.4542 9.8875 19.4979 9.90208L20.4167 10.2083L26.25 4.375H43.75L49.5833 10.2083L50.5312 9.8875C51.7417 9.47917 53.0104 9.49375 54.1771 9.8875C55.0229 10.1646 55.825 10.6312 56.4812 11.2729Z" fill="#F4592B"/>
<path d="M47.4104 34.2562C46.9729 34.6937 46.8562 35.3791 47.1333 35.9333L47.6292 36.925C47.95 37.5812 48.125 38.2958 48.125 39.025C48.125 40.1916 47.7021 41.3145 46.9146 42.175L45.9521 43.2541C45.4854 43.5604 44.9021 43.5895 44.4354 43.327L36.8083 39.127C35.9479 38.5437 35.9333 37.275 36.7937 36.7062L42.4958 32.827C43.1958 32.4187 43.4146 31.5291 43.0062 30.8291L40.2354 26.2208C39.7833 25.4625 40.0312 25.1416 40.8333 24.7916L49.5833 20.4166H42.2917L37.9167 21.5104C37.1146 21.7145 36.6479 22.5312 36.8667 23.3187L38.9958 30.7416C39.2 31.4854 38.7917 32.2729 38.0479 32.5208L35.9042 33.2354C35.5979 33.3375 35.3062 33.3958 35 33.3958C34.6937 33.3958 34.3875 33.3375 34.0812 33.2354L31.9521 32.5208C31.2083 32.2729 30.8 31.4854 31.0042 30.7416L33.1333 23.3187C33.3521 22.5312 32.8854 21.7145 32.0833 21.5104L27.7083 20.4166H20.4167L29.1667 24.7916C29.9687 25.1416 30.2167 25.4625 29.7646 26.2208L26.9937 30.8291C26.5854 31.5291 26.8042 32.4187 27.5042 32.827L33.2062 36.7062C34.0667 37.275 34.0521 38.5437 33.1917 39.127L25.5646 43.327C25.0979 43.5895 24.5146 43.5604 24.0479 43.2541L23.0854 42.175C22.2979 41.3145 21.875 40.1916 21.875 39.025C21.875 38.2958 22.05 37.5812 22.3708 36.925L22.8667 35.9333C23.1437 35.3791 23.0271 34.6937 22.5896 34.2562L16.625 27.2125C15.4146 25.7687 15.2542 23.6979 16.2458 22.0937L21.2042 14.0145C21.5979 13.4895 22.2979 13.3 22.9104 13.5333L26.7312 15.0645C27.4312 15.3416 28.175 15.4875 28.9042 15.4875C29.7937 15.4875 30.6979 15.2833 31.5146 14.875C32.6083 14.3208 33.8042 14.0437 35 14.0437C36.1958 14.0437 37.3917 14.3208 38.4854 14.875C39.9875 15.6187 41.7229 15.6916 43.2687 15.0645L47.0896 13.5333C47.7021 13.3 48.4021 13.4895 48.7958 14.0145L53.7542 22.0937C54.7458 23.6979 54.5854 25.7687 53.375 27.2125L47.4104 34.2562Z" fill="white"/>
<path d="M43.0354 47.3811L36.0354 52.9228C35.7583 53.1999 35.3792 53.3457 35 53.3457C34.6208 53.3457 34.2417 53.1999 33.9646 52.9228L26.9646 47.3811C26.6146 47.0311 26.7167 46.4332 27.1542 46.2145L34.3438 42.6124C34.5479 42.5103 34.7667 42.4666 35 42.4666C35.2333 42.4666 35.4521 42.5103 35.6563 42.6124L42.8458 46.2145C43.2833 46.4332 43.3854 47.0311 43.0354 47.3811Z" fill="white"/>
<path d="M59.7917 18.9583L61.25 24.7916L55.2854 48.6354C54.425 52.0625 52.3542 55.0666 49.4375 57.0791L37.4937 65.3625C36.75 65.8875 35.875 66.1354 35 66.1354V15.1083L36.4583 17.5H46.6667V14.5833L54.1771 9.88745C55.0375 10.1645 55.8542 10.6458 56.5104 11.302L61.25 16.0416L59.7917 18.9583Z" fill="#ED4D01"/>
<path d="M47.4104 34.2562C46.9729 34.6937 46.8562 35.3791 47.1333 35.9333L47.6292 36.925C47.95 37.5812 48.125 38.2958 48.125 39.025C48.125 40.1916 47.7021 41.3145 46.9146 42.175L45.9521 43.2541C45.4854 43.5604 44.9021 43.5895 44.4354 43.327L36.8083 39.127C35.9479 38.5437 35.9333 37.275 36.7937 36.7062L42.4958 32.827C43.1958 32.4187 43.4146 31.5291 43.0062 30.8291L40.2354 26.2208C39.7833 25.4625 40.0312 25.1416 40.8333 24.7916L49.5833 20.4166H42.2917L37.9167 21.5104C37.1146 21.7145 36.6479 22.5312 36.8667 23.3187L38.9958 30.7416C39.2 31.4854 38.7917 32.2729 38.0479 32.5208L35.9042 33.2354C35.5979 33.3375 35.3063 33.3958 35 33.3958V14.0437C36.1958 14.0437 37.3917 14.3208 38.4854 14.875C39.9875 15.6187 41.7229 15.6916 43.2688 15.0645L47.0896 13.5333C47.7021 13.3 48.4021 13.4895 48.7958 14.0145L53.7542 22.0937C54.7458 23.6979 54.5854 25.7687 53.375 27.2125L47.4104 34.2562Z" fill="#F5F5F5"/>
<path d="M43.0354 47.3811L36.0354 52.9228C35.7583 53.1999 35.3792 53.3457 35 53.3457V42.4666C35.2333 42.4666 35.4521 42.5103 35.6563 42.6124L42.8458 46.2145C43.2833 46.4332 43.3854 47.0311 43.0354 47.3811Z" fill="#F5F5F5"/>
</svg>
