<svg width="78" height="78" viewBox="0 0 78 78" fill="none" xmlns="http://www.w3.org/2000/svg">
<g clip-path="url(#clip0_44_722)" filter="url(#filter0_d_44_722)">
<path d="M9.83333 0H68.1667C71.3886 0 74 2.61139 74 5.83333V64.1667C74 67.3886 71.3886 70 68.1667 70H9.83333C6.61139 70 4 67.3886 4 64.1667V5.83333C4 2.61139 6.61139 0 9.83333 0Z" fill="#2196F3"/>
<path d="M24.4167 57.6042C24.2796 57.6042 24.1425 57.5648 24.0244 57.4904C23.8523 57.381 23.7342 57.2031 23.6977 57.0019L23.0619 53.4115L24.4969 53.1577L24.9942 55.9635L27.7461 55.2242L28.1252 56.6329L24.6048 57.5779C24.5436 57.5954 24.4794 57.6042 24.4167 57.6042Z" fill="#B3E5FC"/>
<path d="M22.5194 50.893C22.0819 49.4186 21.4358 48.0959 20.5987 46.9598C20.1904 46.4057 19.8098 45.8355 19.4569 45.2507L20.7067 44.4982C21.0348 45.045 21.3921 45.5773 21.7712 46.095C22.7104 47.3667 23.4323 48.8411 23.9179 50.4788L22.5194 50.893ZM18.191 42.8109C17.2606 40.6948 16.686 38.465 16.4804 36.1813L17.9329 36.05C18.1239 38.1763 18.6606 40.253 19.5269 42.2232L18.191 42.8109Z" fill="#B3E5FC"/>
<path d="M39.875 56.1298L39.821 54.6729C41.9765 54.5927 44.0925 54.1989 46.1108 53.5018L46.5862 54.88C44.4323 55.6237 42.1733 56.0452 39.875 56.1298ZM37.1333 56.0714C36.7017 56.0364 36.2729 55.9898 35.8456 55.93C33.995 55.6777 32.2771 55.6937 30.7123 55.9825L30.4469 54.5489C32.1648 54.2325 34.0358 54.2121 36.044 54.4862C36.4421 54.5416 36.846 54.5854 37.2485 54.6175L37.1333 56.0714ZM49.1194 53.8329L48.4806 52.5218C50.4173 51.5812 52.1892 50.3621 53.7481 48.8979L54.7485 49.961C53.0817 51.5258 51.1873 52.8281 49.1194 53.8329ZM56.6283 47.9616L55.5054 47.0283C56.8865 45.3673 57.9831 43.5225 58.7662 41.5435L60.1225 42.0802C59.2825 44.2035 58.1085 46.181 56.6283 47.9616ZM60.9669 39.4625L59.5508 39.1066C59.946 37.5404 60.1444 35.9246 60.1444 34.3029C60.1444 33.7823 60.124 33.266 60.0846 32.7556L61.5371 32.6418C61.5794 33.1902 61.6027 33.7429 61.6027 34.3029C61.6042 36.0441 61.3898 37.7796 60.9669 39.4625ZM17.8717 33.4789L16.4133 33.4191C16.5081 31.115 16.9777 28.8604 17.8031 26.7137L19.1652 27.2373C18.3952 29.2352 17.9592 31.3352 17.8717 33.4789ZM59.7215 30.2225C59.2781 28.1371 58.5008 26.1377 57.41 24.2812L58.6656 23.5418C59.8381 25.5354 60.6723 27.6806 61.1477 29.9206L59.7215 30.2225ZM20.2327 24.9127L18.9508 24.2185C20.0373 22.2104 21.4344 20.3831 23.1042 18.7862L24.1119 19.8406C22.5529 21.331 21.2462 23.0373 20.2327 24.9127ZM55.9735 22.1579C54.6698 20.4691 53.1108 18.9889 51.339 17.7566L52.1702 16.5593C54.066 17.8762 55.7315 19.46 57.1256 21.2683L55.9735 22.1579ZM26.0704 18.181L25.1983 17.0129C27.0315 15.6435 29.0571 14.5585 31.2212 13.79L31.7112 15.1637C29.6842 15.8856 27.7869 16.8991 26.0704 18.181ZM49.1456 16.4208C47.2527 15.4175 45.2227 14.7058 43.1081 14.3033L43.3823 12.8712C45.6383 13.3014 47.8069 14.0627 49.8296 15.1331L49.1456 16.4208ZM34.1773 14.4521L33.855 13.0287C36.0702 12.5285 38.4065 12.3564 40.664 12.5168L40.5619 13.9708C38.4473 13.8235 36.254 13.9839 34.1773 14.4521Z" fill="#B3E5FC"/>
<path d="M39 17.5627C29.3356 17.5627 21.5 25.0571 21.5 34.3015C21.5 39.2525 23.7604 43.6888 27.3333 46.7527V52.5L32.595 49.8692C34.5813 50.6173 36.7367 51.0417 39 51.0417C48.6644 51.0417 56.5 43.5473 56.5 34.303C56.5 25.0571 48.6644 17.5627 39 17.5627Z" fill="white"/>
</g>
<defs>
<filter id="filter0_d_44_722" x="0" y="0" width="78" height="78" filterUnits="userSpaceOnUse" color-interpolation-filters="sRGB">
<feFlood flood-opacity="0" result="BackgroundImageFix"/>
<feColorMatrix in="SourceAlpha" type="matrix" values="0 0 0 0 0 0 0 0 0 0 0 0 0 0 0 0 0 0 127 0" result="hardAlpha"/>
<feOffset dy="4"/>
<feGaussianBlur stdDeviation="2"/>
<feComposite in2="hardAlpha" operator="out"/>
<feColorMatrix type="matrix" values="0 0 0 0 0 0 0 0 0 0 0 0 0 0 0 0 0 0 0.25 0"/>
<feBlend mode="normal" in2="BackgroundImageFix" result="effect1_dropShadow_44_722"/>
<feBlend mode="normal" in="SourceGraphic" in2="effect1_dropShadow_44_722" result="shape"/>
</filter>
<clipPath id="clip0_44_722">
<rect width="70" height="70" fill="white" transform="translate(4)"/>
</clipPath>
</defs>
</svg>
