<svg width="70" height="70" viewBox="0 0 70 70" fill="none" xmlns="http://www.w3.org/2000/svg">
<path fill-rule="evenodd" clip-rule="evenodd" d="M7.09918 63.1503L11.0279 48.8076C8.60418 44.6105 7.3296 39.8476 7.33106 34.9695C7.33835 19.708 19.7575 7.29175 35.0204 7.29175C42.4273 7.29466 49.3777 10.1778 54.6058 15.4088C59.8325 20.6413 62.7113 27.5947 62.7083 34.9913C62.7025 50.2528 50.2804 62.6705 35.0204 62.6705C35.019 62.6705 35.0204 62.6705 35.0204 62.6705H35.0088C30.3756 62.669 25.8213 61.5067 21.7773 59.3003L7.09918 63.1503Z" fill="white"/>
<path fill-rule="evenodd" clip-rule="evenodd" d="M7.09917 63.8794C6.90667 63.8794 6.72 63.8035 6.58146 63.6635C6.39917 63.4783 6.32771 63.2085 6.39625 62.9592L10.2448 48.9067C7.85896 44.6687 6.60041 39.8562 6.60333 34.9708C6.60916 19.3054 19.3565 6.5625 35.0204 6.5625C42.6183 6.56542 49.7569 9.52438 55.1221 14.894C60.4873 20.265 63.4404 27.4021 63.4375 34.9912C63.4317 50.6552 50.6829 63.3996 35.0204 63.3996C30.3698 63.3981 25.7687 62.2504 21.6854 60.079L7.28437 63.8546C7.22312 63.8721 7.16187 63.8794 7.09917 63.8794Z" fill="white"/>
<path fill-rule="evenodd" clip-rule="evenodd" d="M35.0204 7.29159C42.4273 7.2945 49.3777 10.1776 54.6058 15.4087C59.8325 20.6412 62.7112 27.5945 62.7083 34.9912C62.7025 50.2526 50.2804 62.6703 35.0204 62.6703H35.0087C30.3756 62.6689 25.8212 61.5066 21.7773 59.3001L7.09916 63.1501L11.0279 48.8074C8.60416 44.6103 7.32958 39.8474 7.33104 34.9693C7.33833 19.7078 19.7575 7.29159 35.0204 7.29159ZM35.0204 5.83325C18.9554 5.83325 5.87999 18.9028 5.8727 34.9693C5.87124 39.8795 7.11083 44.7183 9.46166 49.0014L5.69187 62.7666C5.55479 63.2697 5.69479 63.8064 6.06229 64.1768C6.33937 64.4568 6.71416 64.6099 7.09916 64.6099C7.22312 64.6099 7.34708 64.5939 7.46958 64.5618L21.5965 60.8576C25.7206 62.9985 30.3435 64.1287 35.0087 64.1301C51.0854 64.1301 64.1608 51.0591 64.1681 34.9926C64.171 27.2066 61.1421 19.8858 55.6398 14.3791C50.1346 8.87096 42.8123 5.83617 35.0204 5.83325Z" fill="#CFD8DC"/>
<path fill-rule="evenodd" clip-rule="evenodd" d="M51.2983 18.7133C46.9525 14.3645 41.176 11.9685 35.0277 11.967C22.3344 11.967 12.0108 22.2862 12.005 34.9708C12.0035 39.3181 13.2198 43.5502 15.524 47.215L16.0723 48.0856L13.7463 56.5745L22.4569 54.2908L23.2983 54.7895C26.8304 56.8866 30.8817 57.995 35.0117 57.9964H35.0204C47.705 57.9964 58.0285 47.6758 58.0329 34.9897C58.0344 28.8429 55.6442 23.062 51.2983 18.7133Z" fill="#40C351"/>
<path fill-rule="evenodd" clip-rule="evenodd" d="M28.0992 23.3989C27.5814 22.2468 27.036 22.2235 26.5417 22.2031C26.1377 22.1856 25.6769 22.187 25.216 22.187C24.7552 22.187 24.0056 22.3606 23.3712 23.0533C22.7369 23.746 20.9489 25.4187 20.9489 28.8225C20.9489 32.2262 23.4281 35.5162 23.7737 35.977C24.1194 36.4379 28.56 43.6464 35.5921 46.4202C41.4356 48.7243 42.6256 48.2664 43.8944 48.1512C45.1631 48.036 47.9879 46.4785 48.5639 44.8627C49.14 43.2468 49.14 41.8629 48.9679 41.5741C48.7944 41.2854 48.3335 41.1133 47.6423 40.7662C46.951 40.4191 43.5487 38.7464 42.9144 38.516C42.28 38.2856 41.8192 38.1704 41.3569 38.8631C40.896 39.5543 39.5704 41.1133 39.1664 41.5741C38.7625 42.0364 38.3585 42.0948 37.6673 41.7477C36.976 41.4006 34.7477 40.6714 32.1037 38.3148C30.0475 36.4816 28.6592 34.2168 28.2552 33.5241C27.8512 32.8329 28.2114 32.4581 28.5585 32.1125C28.8692 31.8018 29.2498 31.3045 29.5969 30.9006C29.9425 30.4966 30.0577 30.2079 30.2881 29.747C30.5185 29.2848 30.4033 28.8808 30.2298 28.5352C30.0592 28.1881 28.7146 24.7668 28.0992 23.3989Z" fill="white"/>
</svg>
