<svg width="70" height="70" viewBox="0 0 70 70" fill="none" xmlns="http://www.w3.org/2000/svg">
<path d="M64.1667 34.9999C64.1667 51.1057 51.1058 64.1666 35 64.1666C18.8942 64.1666 5.83334 51.1057 5.83334 34.9999C5.83334 18.8941 18.8942 5.83325 35 5.83325C51.1058 5.83325 64.1667 18.8941 64.1667 34.9999Z" fill="#4CAF50"/>
<path d="M35 5.83325V34.9999L46.6667 40.8333L33.7706 64.1666C34.2329 64.1666 34.5377 64.1666 35 64.1666C51.119 64.1666 64.1667 51.1189 64.1667 34.9999C64.1667 18.881 51.119 5.83325 35 5.83325Z" fill="#FFC107"/>
<path d="M64.1667 34.9999C64.1667 51.1057 51.1058 64.1666 35 64.1666C18.8942 64.1666 5.83334 51.1057 5.83334 34.9999C5.83334 18.8941 18.8942 5.83325 35 5.83325C51.1058 5.83325 64.1667 18.8941 64.1667 34.9999Z" fill="#4CAF50"/>
<path d="M35 5.83325V34.9999L46.6667 40.8333L33.7706 64.1666C34.2329 64.1666 34.5377 64.1666 35 64.1666C51.119 64.1666 64.1667 51.1189 64.1667 34.9999C64.1667 18.881 51.119 5.83325 35 5.83325Z" fill="#FFC107"/>
<path d="M61.0167 21.8749H35V40.8333L30.625 39.3749L10.4417 19.3374H10.4125C15.575 11.2145 24.6604 5.83325 35 5.83325C46.375 5.83325 56.2188 12.3666 61.0167 21.8749Z" fill="#F44336"/>
<path d="M10.4388 19.3433L23.3348 41.017L30.625 39.3749L10.4388 19.3433Z" fill="#DD2C00"/>
<path d="M33.7706 64.1666L46.7994 40.7472L40.8333 36.4583L33.7706 64.1666Z" fill="#558B2F"/>
<path d="M61.0531 21.875H35L32.6973 28.5542L61.0531 21.875Z" fill="#F9A825"/>
<path d="M48.125 35C48.125 42.2465 42.2465 48.125 35 48.125C27.7535 48.125 21.875 42.2465 21.875 35C21.875 27.7535 27.7535 21.875 35 21.875C42.2465 21.875 48.125 27.7535 48.125 35Z" fill="white"/>
<path d="M45.2083 35.0001C45.2083 40.6395 40.6394 45.2084 35 45.2084C29.3606 45.2084 24.7917 40.6395 24.7917 35.0001C24.7917 29.3607 29.3606 24.7917 35 24.7917C40.6394 24.7917 45.2083 29.3607 45.2083 35.0001Z" fill="#2196F3"/>
</svg>
