<svg width="70" height="70" viewBox="0 0 70 70" fill="none" xmlns="http://www.w3.org/2000/svg">
<g filter="url(#filter0_d_44_733)">
<mask id="mask0_44_733" style="mask-type:alpha" maskUnits="userSpaceOnUse" x="0" y="0" width="70" height="70">
<rect width="70" height="70" fill="#D9D9D9"/>
</mask>
<g mask="url(#mask0_44_733)">
<path d="M55.4167 35C55.4167 29.3125 53.4353 24.4874 49.4725 20.5246C45.5117 16.5638 40.6875 14.5833 35 14.5833V8.75C38.6458 8.75 42.0612 9.44222 45.2463 10.8267C48.4293 12.2131 51.2001 14.0846 53.5588 16.4413C55.9154 18.7999 57.7869 21.5707 59.1733 24.7538C60.5578 27.9388 61.25 31.3542 61.25 35H55.4167ZM43.75 35C43.75 32.5694 42.8993 30.5035 41.1979 28.8021C39.4965 27.1007 37.4306 26.25 35 26.25V20.4167C39.0347 20.4167 42.4744 21.8381 45.3192 24.6808C48.1619 27.5256 49.5833 30.9653 49.5833 35H43.75ZM58.1875 61.25C51.9167 61.25 45.8043 59.8519 39.8504 57.0558C33.8946 54.2617 28.6203 50.5672 24.0275 45.9725C19.4328 41.3797 15.7383 36.1054 12.9442 30.1496C10.1481 24.1957 8.75 18.0833 8.75 11.8125C8.75 10.9375 9.04167 10.2083 9.625 9.625C10.2083 9.04167 10.9375 8.75 11.8125 8.75H23.625C24.3056 8.75 24.9132 8.96875 25.4479 9.40625C25.9826 9.84375 26.2986 10.4028 26.3958 11.0833L28.2917 21.2917C28.3889 21.9722 28.3772 22.5915 28.2567 23.1496C28.1342 23.7096 27.8542 24.2083 27.4167 24.6458L20.3438 31.7917C22.3854 35.2917 24.9501 38.5729 28.0379 41.6354C31.1238 44.6979 34.5139 47.3472 38.2083 49.5833L45.0625 42.7292C45.5 42.2917 46.0717 41.9631 46.7775 41.7433C47.4814 41.5256 48.1736 41.4653 48.8542 41.5625L58.9167 43.6042C59.5972 43.75 60.1562 44.0776 60.5938 44.5871C61.0312 45.0985 61.25 45.6944 61.25 46.375V58.1875C61.25 59.0625 60.9583 59.7917 60.375 60.375C59.7917 60.9583 59.0625 61.25 58.1875 61.25ZM17.5729 26.25L22.3854 21.4375L21.1458 14.5833H14.6563C14.8993 16.5764 15.2396 18.5451 15.6771 20.4896C16.1146 22.434 16.7465 24.3542 17.5729 26.25ZM43.6771 52.3542C45.5729 53.1806 47.5057 53.8368 49.4754 54.3229C51.4432 54.809 53.4236 55.125 55.4167 55.2708V48.8542L48.5625 47.4688L43.6771 52.3542Z" fill="white"/>
</g>
</g>
<defs>
<filter id="filter0_d_44_733" x="4.75" y="8.75" width="60.5" height="60.5" filterUnits="userSpaceOnUse" color-interpolation-filters="sRGB">
<feFlood flood-opacity="0" result="BackgroundImageFix"/>
<feColorMatrix in="SourceAlpha" type="matrix" values="0 0 0 0 0 0 0 0 0 0 0 0 0 0 0 0 0 0 127 0" result="hardAlpha"/>
<feOffset dy="4"/>
<feGaussianBlur stdDeviation="2"/>
<feComposite in2="hardAlpha" operator="out"/>
<feColorMatrix type="matrix" values="0 0 0 0 0 0 0 0 0 0 0 0 0 0 0 0 0 0 0.25 0"/>
<feBlend mode="normal" in2="BackgroundImageFix" result="effect1_dropShadow_44_733"/>
<feBlend mode="normal" in="SourceGraphic" in2="effect1_dropShadow_44_733" result="shape"/>
</filter>
</defs>
</svg>
