<svg width="70" height="70" viewBox="0 0 70 70" fill="none" xmlns="http://www.w3.org/2000/svg">
<g clip-path="url(#clip0_44_682)">
<path d="M47.4513 63.1449C46.9557 60.498 44.4365 58.4985 41.4631 58.4985C38.118 58.4985 35.3716 61.0121 35.3716 64.1161C35.3716 67.2009 38.0973 69.7336 41.4631 69.7336C42.8259 69.7336 44.1475 69.3146 45.2006 68.5339V69.5812H47.5339V64.0399C47.5339 63.8114 47.4719 63.2972 47.4513 63.1449ZM45.0973 64.1161C45.0973 65.9632 43.466 67.4675 41.4631 67.4675C39.4601 67.4675 37.8289 65.9632 37.8289 64.1161C37.8289 62.2689 39.4601 60.7646 41.4631 60.7646C43.466 60.7646 45.0973 62.2689 45.0973 64.1161Z" fill="#232323"/>
<path d="M67.0059 67.3532L66.9026 67.1628L66.6961 67.277C66.6342 67.3151 66.5722 67.3532 66.5103 67.3722C66.4896 67.3722 66.469 67.3913 66.4483 67.3913H66.4277C66.2831 67.4484 66.0973 67.4865 65.9321 67.5055H65.9115H65.8495C65.5191 67.5436 65.2094 67.5246 64.941 67.4294C64.8997 67.4103 64.879 67.4103 64.8377 67.3913C64.8171 67.3913 64.8171 67.3722 64.7964 67.3722C64.7758 67.3532 64.7551 67.3532 64.7345 67.3342C64.7138 67.3151 64.6725 67.2961 64.6519 67.277L64.6312 67.258C64.2182 66.9914 64.0944 66.6296 64.0737 66.382V60.7645H66.5929V58.7079H64.0531V55.9468H61.7197V66.7819C61.7197 67.3532 62.0088 68.2101 62.8348 68.8766C63.5988 69.4859 64.5693 69.6192 65.2714 69.6192C65.4572 69.6192 65.643 69.6192 65.8289 69.5812C65.8908 69.5812 65.9528 69.5621 66.0147 69.5431H66.0354C66.82 69.4669 67.5221 69.048 67.7079 68.9337L67.8318 68.8575L67.0059 67.3532Z" fill="#232323"/>
<path d="M31.6755 65.5062C31.6755 66.5154 30.8082 67.3342 29.7139 67.3342C28.6401 67.3342 27.7522 66.5154 27.7522 65.5062V61.4501H25.233V65.5062C25.233 66.5154 24.3658 67.3342 23.2714 67.3342C22.1976 67.3342 21.3097 66.5154 21.3097 65.5062V58.8604H18.7699V65.5062C18.7699 67.8293 20.7728 69.7145 23.2507 69.7145C24.469 69.7145 25.6254 69.2575 26.472 68.4387C27.3186 69.2575 28.4749 69.7145 29.6932 69.7145C32.1711 69.7145 34.174 67.8293 34.174 65.5062V58.8604H31.6342V65.5062H31.6755Z" fill="#232323"/>
<path d="M54.6785 58.4985C52.5516 58.4985 50.9616 59.2221 49.9292 60.6694C49.0826 61.85 49.0826 63.202 49.0826 64.097V69.4479H51.6224V63.659C51.6224 62.9926 51.8495 60.8027 54.6785 60.8027C57.5074 60.8027 57.7345 62.9926 57.7345 63.659V69.467H60.2743V64.1161C60.2743 63.2211 60.2743 61.869 59.4277 60.6884C58.3953 59.2412 56.8053 58.4985 54.6785 58.4985Z" fill="#232323"/>
<path d="M67.7699 57.1845C67.7699 56.5561 68.2861 56.1372 68.8849 56.1372C69.5044 56.1372 70 56.5561 70 57.1845C70 57.8129 69.5044 58.2128 68.8849 58.2128C68.2655 58.2128 67.7699 57.7939 67.7699 57.1845ZM69.8142 57.1845C69.8142 56.6704 69.4012 56.2895 68.8849 56.2895C68.3687 56.2895 67.9557 56.6704 67.9557 57.1845C67.9557 57.6987 68.3687 58.0605 68.8849 58.0605C69.4012 58.0605 69.8142 57.6796 69.8142 57.1845ZM68.4513 56.6133H68.8849C69.1327 56.6133 69.3599 56.6894 69.3599 56.956C69.3599 57.0893 69.2566 57.2226 69.1121 57.2607L69.4218 57.7177H69.1947L68.9469 57.3178H68.6578V57.7177H68.4513V56.6133ZM68.8436 57.1655C69.0295 57.1655 69.1534 57.1084 69.1534 56.9751C69.1534 56.8608 69.0708 56.7656 68.8643 56.7656H68.6578V57.1655H68.8436Z" fill="#888A90"/>
<path d="M33.1829 8.13115L36.0325 4.1132L24.944 1.12354C21.826 2.07566 18.9764 3.61809 16.5399 5.57947L19.8024 14.1866C22.7345 10.5115 27.3806 8.13115 32.6254 8.13115C32.8112 8.11211 32.9971 8.11211 33.1829 8.13115Z" fill="url(#paint0_linear_44_682)"/>
<path d="M53.5841 37.704L49.8466 34.8477L41.5664 35.9902C41.236 36.1997 40.885 36.4091 40.5133 36.5996L48.3599 43.4739L52.7788 47.0729L58.0649 41.3602L53.5841 37.704Z" fill="#0A92EF"/>
<path d="M52.7168 14.2437L44.4572 13.0059L44.7876 6.96948L52.7168 14.2437Z" fill="url(#paint1_linear_44_682)"/>
<path d="M52.7168 14.2437L44.4572 13.0059L44.7876 6.96948L52.7168 14.2437Z" fill="#FFAA64"/>
<path d="M44.4779 13.0442C45.3864 13.9773 46.1711 15.0436 46.8112 16.1671L54.1209 25.955L52.7994 14.2248L44.4366 13.0061L44.4779 13.0442Z" fill="#0E9F9D"/>
<path d="M52.7168 14.2437L44.4572 13.0059L44.7876 6.96948L52.7168 14.2437Z" fill="#2EC75B"/>
<path d="M49.8466 34.8477L51.003 42.2742L58.0649 41.3411L53.9558 37.9706L49.8466 34.8477Z" fill="#0ABFFF"/>
<path d="M22.1564 39.8177L24.3865 36.3901C20.2773 34.0478 17.3658 30.0109 16.7257 25.2883L14.8879 30.8487L22.1564 39.8177Z" fill="#FF2B2A"/>
<path d="M10.4071 33.5907C12.0177 36.6947 14.3098 39.3987 17.1387 41.5314L22.177 39.7986L14.9086 30.8296L10.4071 33.5907Z" fill="#E60000"/>
<path d="M10.469 33.7051L15.0118 30.9058L12.4307 18.7948L9.08556 16.186C8.32154 18.433 7.90857 20.8514 7.90857 23.346C7.90857 27.0593 8.83777 30.5821 10.469 33.7051Z" fill="#FF2C1D"/>
<path d="M16.5811 23.327C16.5811 22.9271 16.6018 22.5272 16.6431 22.1273L12.4307 18.7949L14.9705 30.944L16.7669 25.6312C16.6431 24.8885 16.5811 24.1078 16.5811 23.327Z" fill="#FF5429"/>
<path d="M9.06494 16.2622L12.4307 18.7949L16.6431 22.1273C16.8909 19.1376 18.0472 16.3765 19.8643 14.1104L17.4691 7.95972L12.8644 9.27364C11.2124 11.3683 9.91155 13.7105 9.06494 16.2622Z" fill="#FF8F2B"/>
<path d="M33.0177 46.7112V38.8467L33.059 38.561C32.9144 38.561 32.7905 38.561 32.646 38.561C32.3982 38.561 32.1504 38.561 31.9026 38.542L22.1563 39.8178L17.118 41.5507C21.3717 44.7879 26.761 46.7302 32.646 46.7302C32.7699 46.7112 32.8938 46.7112 33.0177 46.7112Z" fill="#B20070"/>
<path d="M44.7876 6.96964L36.1151 3.97998L33.1829 8.13123C37.6431 8.26453 41.649 10.1307 44.4779 13.0442L44.7876 6.96964Z" fill="#B9E239"/>
<path d="M48.2773 5.21764C45.0561 2.72308 40.9676 1.0283 36.6726 0.32373L35.9086 4.13222L44.8496 7.04571L48.2773 5.21764Z" fill="#E4F445"/>
<path d="M48.2566 5.19849L44.7876 6.96943L52.82 14.3579L55.1947 13.7105C53.6047 10.378 51.2094 7.46454 48.2566 5.19849Z" fill="#7CED91"/>
<path d="M44.4572 13.0061C44.4572 13.0251 44.4779 13.0251 44.4779 13.0442L44.4572 13.0061Z" fill="white"/>
<path d="M48.7109 23.3272C48.7109 26.4692 47.6991 29.4017 45.9646 31.8201L54.1416 25.7837L46.7493 16.0149C47.9882 18.1857 48.7109 20.6803 48.7109 23.3272Z" fill="#0F8791"/>
<path d="M52.7168 14.2436L54.0383 25.8595L57.3422 24.736C57.3628 24.26 57.3835 23.8029 57.3835 23.3269C57.3835 19.8802 56.5782 16.6049 55.174 13.6533L52.7168 14.2436Z" fill="#18D1C3"/>
<path d="M54.059 25.8596L49.8466 34.8476L53.4189 37.5707L52.7375 37.0184C55.4631 33.4575 57.1564 29.1349 57.3835 24.4504L54.059 25.8596Z" fill="#47D6E5"/>
<path d="M51.003 42.2743L40.6372 36.5425C40.5959 36.5615 40.5546 36.5996 40.5133 36.6186L48.3599 43.493L52.7788 47.092L53.0679 46.7873L51.003 42.2743Z" fill="#1B7EEA"/>
<path d="M53.0678 46.7491L58.0649 41.3411L51.0029 42.2741L53.0678 46.7491Z" fill="#2AD3FF"/>
<path d="M8.0531 20.7752L12.4307 18.7758L17.469 7.94061L16.5605 5.57935C11.9145 9.33071 8.75517 14.7007 8.0531 20.7752Z" fill="url(#paint2_linear_44_682)"/>
<path d="M36.0738 4.09424L17.4691 7.94081L19.8643 14.0915C22.7965 10.4354 27.4219 8.09315 32.646 8.09315C32.8319 8.09315 33.0177 8.09315 33.2036 8.11219L36.0738 4.09424Z" fill="url(#paint3_linear_44_682)"/>
<path d="M23.9735 36.1426L22.0531 39.8559L33.0383 46.4255V38.8466L33.0796 38.561C32.9351 38.561 32.8112 38.561 32.6667 38.561C29.4454 38.561 26.472 37.666 23.9735 36.1426Z" fill="#CD2B90"/>
<path d="M49.8466 34.8477L54.059 25.8596L45.9646 31.8389C44.7876 33.4766 42.3924 35.438 40.6372 36.5234L49.8466 34.8477Z" fill="#0E799A"/>
<path d="M36.9616 0.361807C35.5575 0.133297 34.1121 0 32.646 0C29.9616 0 27.3805 0.399892 24.9646 1.16159L36.0324 4.1703L36.9616 0.361807Z" fill="#FAFB3E"/>
<path d="M15.4041 66.7819C16.5398 65.3918 17.1386 63.7541 17.1386 62.0213C17.1386 57.6605 13.2979 54.1187 8.56932 54.1187C3.84071 54.1187 0 57.6605 0 62.0213C0 66.3249 3.73746 69.8287 8.38348 69.9239V67.3912C5.22419 67.296 2.66372 64.8967 2.66372 61.9451C2.66372 58.9364 5.30678 56.499 8.56932 56.499C11.8319 56.499 14.4749 58.9364 14.4749 61.9451C14.4749 63.8303 13.4425 65.5632 11.6873 66.5724L11.5015 66.6867L15.5693 70L17.2006 68.2481L15.4041 66.7819Z" fill="#232323"/>
</g>
<defs>
<linearGradient id="paint0_linear_44_682" x1="16.5399" y1="7.65509" x2="36.0325" y2="7.65509" gradientUnits="userSpaceOnUse">
<stop stop-color="#FFDD24"/>
<stop offset="1" stop-color="#F4EF25"/>
</linearGradient>
<linearGradient id="paint1_linear_44_682" x1="43.2014" y1="8.75665" x2="55.0276" y2="20.8034" gradientUnits="userSpaceOnUse">
<stop stop-color="#FFAA64"/>
<stop offset="1" stop-color="#FF3264"/>
</linearGradient>
<linearGradient id="paint2_linear_44_682" x1="5.27677" y1="48.5442" x2="17.3144" y2="-16.5926" gradientUnits="userSpaceOnUse">
<stop stop-color="#FF6D19"/>
<stop offset="1" stop-color="#FBF124"/>
</linearGradient>
<linearGradient id="paint3_linear_44_682" x1="13.8976" y1="12.0968" x2="32.0039" y2="7.27252" gradientUnits="userSpaceOnUse">
<stop stop-color="#FFA724"/>
<stop offset="1" stop-color="#BDCE25"/>
</linearGradient>
<clipPath id="clip0_44_682">
<rect width="70" height="70" fill="white"/>
</clipPath>
</defs>
</svg>
