<svg width="70" height="70" viewBox="0 0 70 70" fill="none" xmlns="http://www.w3.org/2000/svg">
<mask id="mask0_42_300" style="mask-type:alpha" maskUnits="userSpaceOnUse" x="0" y="0" width="70" height="70">
<rect width="70" height="70" fill="#D9D9D9"/>
</mask>
<g mask="url(#mask0_42_300)">
<path d="M33.9063 2.91675C38.3299 2.91675 42.1089 4.45966 45.2434 7.5455C48.3797 10.6333 49.9479 14.389 49.9479 18.8126C49.9479 21.1459 49.4249 23.4423 48.3788 25.7017C47.3346 27.9631 45.7674 29.9202 43.6771 31.573H41.1979V25.9584C42.0729 24.9862 42.7778 23.9041 43.3125 22.7122C43.8472 21.5222 44.1146 20.2223 44.1146 18.8126C44.1146 16.0417 43.1064 13.6715 41.09 11.7017C39.0717 9.73397 36.6771 8.75008 33.9063 8.75008C31.0382 8.75008 28.6193 9.73397 26.6496 11.7017C24.6818 13.6715 23.6979 16.0417 23.6979 18.8126C23.6979 20.2223 23.9527 21.5591 24.4621 22.823C24.9735 24.0869 25.691 25.1806 26.6146 26.1042V33.2501C23.9896 31.889 21.875 29.9445 20.2709 27.4167C18.6667 24.889 17.8646 22.0209 17.8646 18.8126C17.8646 14.389 19.4202 10.6333 22.5313 7.5455C25.6424 4.45966 29.434 2.91675 33.9063 2.91675ZM31.1354 64.1667C30.309 64.1667 29.5313 64.0083 28.8021 63.6913C28.0729 63.3763 27.441 62.9515 26.9063 62.4167L11.8854 47.3959L15.9688 43.1667C16.6493 42.4862 17.4154 41.9631 18.2671 41.5976C19.1168 41.234 20.0035 41.1737 20.9271 41.4167L26.6146 42.7292V18.9584C26.6146 16.9167 27.3195 15.1911 28.7292 13.7813C30.1389 12.3716 31.8646 11.6667 33.9063 11.6667C35.9479 11.6667 37.6736 12.3716 39.0834 13.7813C40.4931 15.1911 41.1979 16.9167 41.1979 18.9584V31.5001H43.0938C43.3368 31.5001 43.5672 31.5361 43.785 31.608C44.0047 31.6819 44.2118 31.7917 44.4063 31.9376L55.1979 37.1876C56.3646 37.7223 57.227 38.5847 57.785 39.7747C58.345 40.9666 58.5035 42.1945 58.2604 43.4584L55.6354 59.3543C55.3924 60.764 54.7118 61.919 53.5938 62.8192C52.4757 63.7176 51.2118 64.1667 49.8021 64.1667H31.1354ZM31.1354 58.3334H49.8021L52.5729 42.4376L40.4688 36.4584H35.3646V18.9584C35.3646 18.5209 35.2314 18.168 34.965 17.8997C34.6967 17.6333 34.3438 17.5001 33.9063 17.5001C33.4688 17.5001 33.1159 17.6333 32.8475 17.8997C32.5811 18.168 32.4479 18.5209 32.4479 18.9584V49.8751L20.0521 47.2501L31.1354 58.3334Z" fill="white"/>
</g>
</svg>
