<svg width="70" height="70" viewBox="0 0 70 70" fill="none" xmlns="http://www.w3.org/2000/svg">
<path d="M61.25 20.3818L45.7581 10.5803L35 19.4164L51.0796 28.7759L61.25 20.3818ZM8.75 37.402L24.694 46.747L35 38.8399L19.7283 29.1216L8.75 37.402ZM24.694 10.5803L8.75 20.8557L19.7283 29.1216L35 19.4164L24.694 10.5803ZM35 38.8399L45.5131 46.747L61.25 37.402L51.0796 28.7759L35 38.8399Z" fill="#1E88E5"/>
<path d="M46.951 49.261L45.2769 50.257L43.7194 49.0845L35 42.5278L26.476 49.067L24.9244 50.2599L23.2356 49.2697L18.9583 46.7628V50.6595L34.9825 61.2499L51.0417 50.7412V46.8328L46.951 49.261Z" fill="#1E88E5"/>
</svg>
