<svg width="70" height="70" viewBox="0 0 70 70" fill="none" xmlns="http://www.w3.org/2000/svg">
<path d="M35 51.0416C26.1042 51.0416 18.9583 43.8958 18.9583 34.9999C18.9583 26.1041 26.1042 18.9583 35 18.9583C43.8958 18.9583 51.0417 26.1041 51.0417 34.9999C51.0417 43.8958 43.8958 51.0416 35 51.0416ZM33.3958 11.6666C33.3958 11.6666 31.3542 9.91659 31.3542 6.56242C31.3542 3.49992 32.9583 1.45825 32.9583 1.45825C32.9583 1.45825 35 3.20825 35 6.56242C35 10.4999 33.3958 11.6666 33.3958 11.6666ZM43.8958 13.1249C43.8958 13.1249 43.0208 10.2083 44.9167 7.58325C46.6667 5.10408 49.2917 4.37492 49.2917 4.37492C49.2917 4.37492 50.1667 7.14575 48.2708 9.91659C46.0833 13.2708 43.8958 13.1249 43.8958 13.1249ZM52.5 17.3541C52.5 17.3541 52.5 15.3124 54.5417 13.9999C56.2917 12.8333 58.3333 13.1249 58.3333 13.1249C58.3333 13.1249 58.3333 15.0208 56.2917 16.3333C53.9583 17.9374 52.5 17.3541 52.5 17.3541ZM24.6458 11.6666C24.6458 11.6666 22.4583 11.3749 21.1458 9.47909C19.9792 7.58325 20.5625 5.83325 20.5625 5.83325C20.5625 5.83325 22.6042 6.12492 23.9167 8.02075C25.375 10.3541 24.6458 11.6666 24.6458 11.6666ZM17.5 17.4999C17.5 17.4999 15.3125 17.7916 13.5625 16.3333C11.8125 15.0208 11.6667 13.1249 11.6667 13.1249C11.6667 13.1249 13.7083 12.8333 15.6042 14.2916C17.7917 16.0416 17.5 17.4999 17.5 17.4999ZM35.5833 58.3333C35.5833 58.3333 37.625 59.7916 37.3333 63.5833C37.1875 66.7916 35.1458 68.5416 35.1458 68.5416C35.1458 68.5416 33.1042 66.4999 33.3958 63.4374C33.6875 59.6458 35.5833 58.3333 35.5833 58.3333ZM24.5 56.8749C24.5 56.8749 25.0833 59.2083 23.625 61.5416C22.3125 63.5833 20.4167 64.1666 20.4167 64.1666C20.4167 64.1666 19.6875 61.6874 21.1458 59.4999C22.8958 56.7291 24.5 56.8749 24.5 56.8749ZM17.5 51.0416C17.5 51.0416 17.3542 53.0833 15.4583 54.3958C13.7083 55.7083 11.6667 55.4166 11.6667 55.4166C11.6667 55.4166 11.6667 53.5208 13.7083 52.0624C15.75 50.7499 17.5 51.0416 17.5 51.0416ZM46.8125 56.8749C46.8125 56.8749 49 57.1666 50.3125 59.0624C51.4792 60.8124 51.0417 62.7083 51.0417 62.7083C51.0417 62.7083 49 62.4166 47.6875 60.5208C46.0833 58.1874 46.8125 56.8749 46.8125 56.8749ZM52.5 51.0416C52.5 51.0416 54.6875 50.6041 56.4375 52.2083C58.1875 53.5208 58.3333 55.4166 58.3333 55.4166C58.3333 55.4166 56.2917 55.8541 54.3958 54.2499C52.2083 52.4999 52.5 51.0416 52.5 51.0416Z" fill="#0097A7"/>
<path d="M35 56.875C22.8958 56.875 13.125 47.1042 13.125 35C13.125 22.8958 22.8958 13.125 35 13.125C47.1042 13.125 56.875 22.8958 56.875 35C56.875 47.1042 47.1042 56.875 35 56.875ZM35 16.0417C24.5 16.0417 16.0417 24.5 16.0417 35C16.0417 45.5 24.5 53.9583 35 53.9583C45.5 53.9583 53.9583 45.5 53.9583 35C53.9583 24.5 45.5 16.0417 35 16.0417Z" fill="#E65100"/>
<path d="M24.5 37.0416C24.6458 37.6249 23.9167 38.2083 23.7708 38.7916C23.625 39.3749 23.4792 39.8124 23.1875 39.9583C22.8958 40.2499 22.4583 40.3958 22.1667 40.6874C21.875 40.9791 21 42.4374 20.7083 42.5833C19.6875 40.2499 18.9583 37.7708 18.9583 34.9999C18.9583 34.1249 19.1042 33.3958 19.1042 32.6666C19.25 32.6666 20.125 33.1041 20.7083 33.5416C21.4375 33.9791 21.875 35.4374 22.4583 35.7291C23.0417 36.0208 24.3542 36.6041 24.5 37.0416ZM21.5833 26.2499C22.4583 26.2499 22.8958 25.5208 23.1875 25.5208C23.4792 25.5208 23.625 25.6666 23.9167 25.6666C24.0625 25.6666 24.5 25.5208 24.5 25.0833C24.5 24.6458 23.9167 23.6249 23.9167 23.4791C23.0417 24.3541 22.1667 25.2291 21.5833 26.2499ZM26.6875 21.7291C26.6875 21.8749 26.25 22.3124 26.25 22.7499C26.25 23.1874 26.5417 23.6249 26.9792 23.6249C27.7083 23.6249 28.2917 22.8958 29.3125 22.8958C30.1875 22.8958 31.9375 22.1666 31.9375 21.1458C31.9375 20.7083 31.5 20.5624 31.0625 20.5624C30.625 20.5624 29.1667 20.5624 28.5833 20.2708C27.8542 20.5624 27.125 20.9999 26.3958 21.4374C26.5417 21.4374 26.6875 21.5833 26.6875 21.7291ZM38.7917 43.0208C38.7917 43.1666 38.9375 43.3124 39.0833 43.3124C39.2292 43.3124 39.375 43.1666 39.5208 43.0208C39.8125 42.7291 39.9583 42.2916 39.9583 41.8541C39.9583 41.7083 39.9583 41.5624 39.9583 41.5624C39.8125 41.4166 39.6667 41.4166 39.6667 41.4166C39.2292 41.4166 38.9375 42.1458 38.7917 42.5833C38.7917 42.8749 38.7917 43.0208 38.7917 43.0208ZM51.0417 34.9999C51.0417 36.8958 50.75 38.6458 50.1667 40.2499C50.0208 40.1041 49.7292 39.5208 49.7292 39.0833C49.7292 38.7916 50.0208 38.0624 50.0208 37.4791C50.0208 36.8958 49.4375 35.2916 48.2708 35.2916C46.8125 35.2916 46.9583 37.4791 46.2292 37.4791C45.2083 37.4791 45.2083 33.8333 43.8958 33.8333C43.4583 33.8333 42.875 34.5624 42.2917 34.9999C41.8542 35.4374 40.8333 35.4374 40.8333 36.7499C40.8333 37.7708 38.6458 38.0624 38.6458 40.3958C38.6458 41.1249 37.7708 41.9999 37.1875 42.4374C36.75 42.8749 36.1667 44.7708 34.5625 44.7708C33.6875 44.7708 32.8125 43.0208 32.8125 41.2708C32.8125 40.2499 33.1042 39.9583 33.1042 38.9374C33.1042 37.9166 32.6667 36.0208 30.625 36.0208C29.6042 36.0208 28.5833 35.4374 28.5833 33.1041C28.5833 30.9166 30.9167 30.9166 30.9167 28.8749C30.9167 28.2916 32.2292 27.7083 32.2292 27.4166C32.2292 27.1249 31.7917 26.5416 31.7917 26.2499C31.7917 25.9583 32.2292 25.6666 32.5208 25.6666C32.8125 25.6666 33.5417 26.3958 33.8333 26.3958C34.125 26.3958 34.2708 25.6666 34.4167 25.0833C34.5625 24.4999 36.3125 23.6249 37.0417 23.6249C37.7708 23.6249 39.6667 24.6458 40.8333 24.6458C41.8542 24.6458 45.5 24.0624 46.6667 24.0624C48.2708 25.8124 49.4375 27.8541 50.1667 30.0416C50.1667 30.1874 50.3125 30.3333 50.3125 30.4791C50.4583 30.7708 50.4583 31.2083 50.6042 31.4999C50.6042 31.7916 50.75 31.9374 50.75 32.2291C50.75 32.5208 50.8958 32.9583 50.8958 33.2499C50.8958 33.3958 50.8958 33.6874 50.8958 33.8333C51.0417 34.2708 51.0417 34.5624 51.0417 34.9999ZM38.2083 31.0624C38.2083 30.9166 37.9167 30.6249 37.4792 30.6249C37.0417 30.6249 36.6042 30.0416 36.0208 29.8958C35.5833 29.7499 34.2708 28.8749 33.8333 28.8749C33.3958 28.8749 33.5417 28.8749 33.5417 29.1666C33.5417 29.1666 34.7083 30.6249 35.4375 31.0624C36.1667 31.3541 36.3125 31.2083 36.6042 31.2083C36.8958 31.2083 37.0417 31.4999 37.4792 31.4999C38.0625 31.3541 38.2083 31.2083 38.2083 31.0624Z" fill="#CDDC39"/>
</svg>
