<svg width="70" height="73" viewBox="0 0 70 73" fill="none" xmlns="http://www.w3.org/2000/svg">
<g filter="url(#filter0_d_33_597)">
<path d="M59.3396 51.6541C45.9958 68.9791 28.1167 64.4875 21.0875 60.55C10.3688 54.5562 2.85833 40.6 7.32083 26.6437C8.63333 22.5312 10.6313 19.0166 13.125 16.1C15.5604 16.2895 18.4479 16.2895 21.875 16.0416C42.2917 14.5833 48.125 32.0833 46.6667 36.4583C45.9229 38.6895 43.2833 39.4041 40.8771 39.5645C41.1104 39.2437 41.4021 38.777 41.8104 38.077C43.0792 35.8312 43.2396 31.5291 39.2875 28.9333C35.4813 26.4541 31.3688 27.9854 29.2542 30.8C27.1396 33.6 27.9708 37.8145 28.7146 39.6812C31.9229 47.7312 37.8438 49.8166 41.8688 51.027C45.8937 52.2375 51.8729 52.0625 55.0667 50.75C58.2458 49.4229 59.15 48.6645 59.7625 49.3354C60.3896 50.0062 59.9521 50.7791 59.3396 51.6541Z" fill="#1E88E5"/>
<path d="M59.4008 51.6543C54.3258 58.2459 48.5946 61.673 43.0529 63.1897C43.0092 63.2043 42.9654 63.2043 42.9363 63.2188C39.7279 63.8313 37.1758 63.3355 34.405 62.7959C29.8988 61.9209 23.6863 56.948 22.1842 47.9501C20.9008 40.2063 24.5613 33.6438 30.3363 29.6626C29.9571 30.0126 29.6217 30.3918 29.3154 30.8001C27.2008 33.6001 28.0321 37.8147 28.7758 39.6813C31.9842 47.7313 37.905 49.8168 41.93 51.0272C45.955 52.2376 51.9342 52.0626 55.1279 50.7501C58.3071 49.423 59.2113 48.6647 59.8238 49.3355C60.4508 50.0064 60.0133 50.7793 59.4008 51.6543Z" fill="#0D47A1"/>
<path d="M39.2875 6.19801C39.3167 6.57718 39.3313 6.98551 39.3313 7.37926C39.3313 12.8918 36.7792 17.7918 32.7979 20.9709C31.3104 20.2126 29.575 19.6001 27.475 19.1918C21.5396 18.0543 11.9729 20.7959 8.07917 27.6063C6.79584 29.8376 6.25625 32.1272 6.02292 34.2418C6.08125 31.748 6.50417 29.1959 7.32084 26.6438C12.1188 11.6813 26.0458 4.44801 39.2875 6.19801Z" fill="#00E5FF"/>
<path d="M60.375 40.6729C56.35 44.7271 51.2312 44.8437 47.7312 44.6542C44.2167 44.4792 42.4958 43.4583 40.8917 42.4667C39.2729 41.4604 40.1917 40.4687 40.3521 40.25C40.5125 40.0312 40.9062 39.6521 41.8104 38.0771C42.2333 37.3333 42.5396 36.3562 42.5979 35.2917C49.3354 30.2896 54.2062 22.9104 55.9562 14.3792C60.2146 18.6812 62.2271 23.4354 62.9417 25.4771C64.225 29.1521 65.2021 35.8166 60.375 40.6729Z" fill="#00E676"/>
<path d="M55.9562 14.3647V14.3792C54.2062 22.9105 49.3354 30.2897 42.5979 35.2917C42.6417 34.6793 42.5979 34.023 42.4521 33.3667C42.4521 33.3376 42.4375 33.3084 42.4375 33.2938C42.0729 31.1501 40.9937 28.4376 39.2 26.3376C37.4208 24.2376 35.525 22.3563 32.7979 20.9709C36.7792 17.7917 39.3312 12.8917 39.3312 7.37925C39.3312 6.9855 39.3167 6.57716 39.2875 6.198C39.8708 6.27091 40.4396 6.35841 41.0229 6.47508C47.7458 7.773 52.5583 10.923 55.9562 14.3647Z" fill="#1DE9B6"/>
</g>
<defs>
<filter id="filter0_d_33_597" x="-4" y="0" width="78" height="78" filterUnits="userSpaceOnUse" color-interpolation-filters="sRGB">
<feFlood flood-opacity="0" result="BackgroundImageFix"/>
<feColorMatrix in="SourceAlpha" type="matrix" values="0 0 0 0 0 0 0 0 0 0 0 0 0 0 0 0 0 0 127 0" result="hardAlpha"/>
<feOffset dy="4"/>
<feGaussianBlur stdDeviation="2"/>
<feComposite in2="hardAlpha" operator="out"/>
<feColorMatrix type="matrix" values="0 0 0 0 0 0 0 0 0 0 0 0 0 0 0 0 0 0 0.25 0"/>
<feBlend mode="normal" in2="BackgroundImageFix" result="effect1_dropShadow_33_597"/>
<feBlend mode="normal" in="SourceGraphic" in2="effect1_dropShadow_33_597" result="shape"/>
</filter>
</defs>
</svg>
