<svg width="70" height="70" viewBox="0 0 70 70" fill="none" xmlns="http://www.w3.org/2000/svg">
<path d="M63.5994 29.2876H61.25V29.1666H35V40.8333H51.4835C49.0788 47.6247 42.6169 52.4999 35 52.4999C25.3356 52.4999 17.5 44.6643 17.5 34.9999C17.5 25.3355 25.3356 17.4999 35 17.4999C39.461 17.4999 43.5196 19.1828 46.6098 21.9318L54.8596 13.682C49.6504 8.82721 42.6825 5.83325 35 5.83325C18.8927 5.83325 5.83334 18.8926 5.83334 34.9999C5.83334 51.1072 18.8927 64.1666 35 64.1666C51.1073 64.1666 64.1667 51.1072 64.1667 34.9999C64.1667 33.0443 63.9654 31.1353 63.5994 29.2876Z" fill="#FFC107"/>
<path d="M9.19625 21.4243L18.779 28.452C21.3719 22.0324 27.6515 17.4999 35 17.4999C39.461 17.4999 43.5196 19.1828 46.6098 21.9318L54.8596 13.682C49.6504 8.82721 42.6825 5.83325 35 5.83325C23.7971 5.83325 14.0817 12.158 9.19625 21.4243Z" fill="#FF3D00"/>
<path d="M35 64.1667C42.5338 64.1667 49.3792 61.2836 54.5548 56.595L45.5277 48.9563C42.5994 51.1744 38.9594 52.5 35 52.5C27.4138 52.5 20.9723 47.6627 18.5456 40.9121L9.03438 48.2402C13.8615 57.6859 23.6644 64.1667 35 64.1667Z" fill="#4CAF50"/>
<path d="M63.5994 29.2878H61.25V29.1667H35V40.8334H51.4835C50.3285 44.0957 48.23 46.9088 45.5233 48.9578C45.5248 48.9563 45.5262 48.9563 45.5277 48.9549L54.5548 56.5936C53.916 57.174 64.1667 49.5834 64.1667 35.0001C64.1667 33.0445 63.9654 31.1355 63.5994 29.2878Z" fill="#1976D2"/>
</svg>
