<svg width="70" height="70" viewBox="0 0 70 70" fill="none" xmlns="http://www.w3.org/2000/svg">
<g clip-path="url(#clip0_42_245)">
<path d="M54.4444 70H15.5556C6.97861 70 0 63.0214 0 54.4444V15.5556C0 6.97861 6.97861 0 15.5556 0H54.4444C63.0214 0 70 6.97861 70 15.5556V54.4444C70 63.0214 63.0214 70 54.4444 70Z" fill="#1E88E5"/>
<path d="M52.3921 25.5033L42.8954 34.9999L52.3906 44.4951C52.4548 44.256 52.5 44.0095 52.5 43.7499V26.2499C52.5 25.9903 52.4548 25.7439 52.3921 25.5033ZM38.92 34.8526L50.33 23.4412C50.0894 23.3785 49.8429 23.3333 49.5833 23.3333H20.4167C20.1571 23.3333 19.9106 23.3785 19.67 23.4412L31.08 34.8526C33.2427 37.0124 36.7573 37.0124 38.92 34.8526ZM35 39.388C32.9 39.388 30.8102 38.5976 29.1813 37.0474L19.67 46.5587C19.9106 46.6214 20.1571 46.6666 20.4167 46.6666H49.5833C49.8429 46.6666 50.0894 46.6214 50.33 46.5587L40.8188 37.0474C39.1898 38.5976 37.1 39.388 35 39.388ZM17.6079 25.5033C17.5452 25.7439 17.5 25.9903 17.5 26.2499V43.7499C17.5 44.0095 17.5452 44.256 17.6079 44.4966L27.1046 34.9999L17.6079 25.5033Z" fill="white"/>
</g>
<defs>
<clipPath id="clip0_42_245">
<rect width="70" height="70" fill="white"/>
</clipPath>
</defs>
</svg>
