<svg width="70" height="70" viewBox="0 0 70 70" fill="none" xmlns="http://www.w3.org/2000/svg">
<mask id="mask0_42_291" style="mask-type:alpha" maskUnits="userSpaceOnUse" x="0" y="0" width="70" height="70">
<rect width="70" height="70" fill="#D9D9D9"/>
</mask>
<g mask="url(#mask0_42_291)">
<path d="M5.83332 55.4167V49.5834H64.1667V55.4167H5.83332ZM9.18749 37.7709L5.39582 35.5834L7.87499 31.2084H2.91666V26.8334H7.87499L5.39582 22.6042L9.18749 20.4167L11.6667 24.6459L14.1458 20.4167L17.9375 22.6042L15.4583 26.8334H20.4167V31.2084H15.4583L17.9375 35.5834L14.1458 37.7709L11.6667 33.3959L9.18749 37.7709ZM32.5208 37.7709L28.7292 35.5834L31.2083 31.2084H26.25V26.8334H31.2083L28.7292 22.6042L32.5208 20.4167L35 24.6459L37.4792 20.4167L41.2708 22.6042L38.7917 26.8334H43.75V31.2084H38.7917L41.2708 35.5834L37.4792 37.7709L35 33.3959L32.5208 37.7709ZM55.8542 37.7709L52.0625 35.5834L54.5417 31.2084H49.5833V26.8334H54.5417L52.0625 22.6042L55.8542 20.4167L58.3333 24.6459L60.8125 20.4167L64.6042 22.6042L62.125 26.8334H67.0833V31.2084H62.125L64.6042 35.5834L60.8125 37.7709L58.3333 33.3959L55.8542 37.7709Z" fill="white"/>
</g>
</svg>
