<svg width="70" height="70" viewBox="0 0 70 70" fill="none" xmlns="http://www.w3.org/2000/svg">
<mask id="mask0_42_297" style="mask-type:alpha" maskUnits="userSpaceOnUse" x="0" y="0" width="70" height="70">
<rect width="70" height="70" fill="#D9D9D9"/>
</mask>
<g mask="url(#mask0_42_297)">
<path d="M17.5 58.3334C15.8958 58.3334 14.523 57.7627 13.3816 56.6213C12.2383 55.478 11.6666 54.1042 11.6666 52.5001C11.6666 50.8959 12.2383 49.5222 13.3816 48.3788C14.523 47.2374 15.8958 46.6667 17.5 46.6667H18.2291C18.4722 46.6667 18.7153 46.7154 18.9583 46.8126L29.3125 36.4584C29.0694 35.4376 29.0811 34.4284 29.3475 33.4309C29.6158 32.4354 30.1146 31.573 30.8437 30.8438C31.5729 30.1147 32.4362 29.6159 33.4337 29.3476C34.4293 29.0812 35.4375 29.0695 36.4583 29.3126L46.8125 18.9584C46.7153 18.7154 46.6666 18.4723 46.6666 18.2292V17.5001C46.6666 15.8959 47.2373 14.5231 48.3787 13.3817C49.5221 12.2384 50.8958 11.6667 52.5 11.6667C54.1041 11.6667 55.4779 12.2384 56.6212 13.3817C57.7626 14.5231 58.3333 15.8959 58.3333 17.5001C58.3333 19.1042 57.7626 20.477 56.6212 21.6184C55.4779 22.7617 54.1041 23.3334 52.5 23.3334L51.0416 23.1876L40.6875 33.4688C40.9305 34.4897 40.9189 35.5105 40.6525 36.5313C40.3841 37.5522 39.8854 38.4272 39.1562 39.1563C38.3785 39.9341 37.4908 40.4562 36.4933 40.7226C35.4978 40.9909 34.4896 40.9792 33.4687 40.6876L24.5 49.5834H30.0416C30.5764 48.7084 31.2812 48.0036 32.1562 47.4688C33.0312 46.9341 33.9791 46.6667 35 46.6667C36.0694 46.6667 37.0543 46.9215 37.9546 47.4309C38.8529 47.9423 39.5694 48.6598 40.1041 49.5834H47.3958C47.9305 48.6598 48.648 47.9423 49.5483 47.4309C50.4466 46.9215 51.4305 46.6667 52.5 46.6667C54.1041 46.6667 55.4779 47.2374 56.6212 48.3788C57.7626 49.5222 58.3333 50.8959 58.3333 52.5001C58.3333 54.1042 57.7626 55.478 56.6212 56.6213C55.4779 57.7627 54.1041 58.3334 52.5 58.3334C51.4305 58.3334 50.4466 58.0661 49.5483 57.5313C48.648 56.9966 47.9305 56.2917 47.3958 55.4167H40.1041C39.5694 56.3404 38.8529 57.0579 37.9546 57.5692C37.0543 58.0787 36.0694 58.3334 35 58.3334C33.9791 58.3334 33.0312 58.0661 32.1562 57.5313C31.2812 56.9966 30.5764 56.2917 30.0416 55.4167H22.4583C21.9236 56.2917 21.2187 56.9966 20.3437 57.5313C19.4687 58.0661 18.5208 58.3334 17.5 58.3334ZM17.5 40.8334C15.8958 40.8334 14.523 40.2617 13.3816 39.1184C12.2383 37.977 11.6666 36.6042 11.6666 35.0001C11.6666 33.3959 12.2383 32.0222 13.3816 30.8788C14.523 29.7374 15.8958 29.1667 17.5 29.1667C19.1041 29.1667 20.4769 29.7374 21.6183 30.8788C22.7616 32.0222 23.3333 33.3959 23.3333 35.0001C23.3333 36.6042 22.7616 37.977 21.6183 39.1184C20.4769 40.2617 19.1041 40.8334 17.5 40.8334ZM17.5 23.3334C15.8958 23.3334 14.523 22.7617 13.3816 21.6184C12.2383 20.477 11.6666 19.1042 11.6666 17.5001C11.6666 15.8959 12.2383 14.5231 13.3816 13.3817C14.523 12.2384 15.8958 11.6667 17.5 11.6667C19.1041 11.6667 20.4769 12.2384 21.6183 13.3817C22.7616 14.5231 23.3333 15.8959 23.3333 17.5001C23.3333 19.1042 22.7616 20.477 21.6183 21.6184C20.4769 22.7617 19.1041 23.3334 17.5 23.3334ZM35 23.3334C33.3958 23.3334 32.023 22.7617 30.8816 21.6184C29.7383 20.477 29.1666 19.1042 29.1666 17.5001C29.1666 15.8959 29.7383 14.5231 30.8816 13.3817C32.023 12.2384 33.3958 11.6667 35 11.6667C36.6041 11.6667 37.9779 12.2384 39.1212 13.3817C40.2626 14.5231 40.8333 15.8959 40.8333 17.5001C40.8333 19.1042 40.2626 20.477 39.1212 21.6184C37.9779 22.7617 36.6041 23.3334 35 23.3334ZM52.5 40.8334C50.8958 40.8334 49.5221 40.2617 48.3787 39.1184C47.2373 37.977 46.6666 36.6042 46.6666 35.0001C46.6666 33.3959 47.2373 32.0222 48.3787 30.8788C49.5221 29.7374 50.8958 29.1667 52.5 29.1667C54.1041 29.1667 55.4779 29.7374 56.6212 30.8788C57.7626 32.0222 58.3333 33.3959 58.3333 35.0001C58.3333 36.6042 57.7626 37.977 56.6212 39.1184C55.4779 40.2617 54.1041 40.8334 52.5 40.8334Z" fill="white"/>
</g>
</svg>
