<svg width="70" height="70" viewBox="0 0 70 70" fill="none" xmlns="http://www.w3.org/2000/svg">
<mask id="mask0_42_294" style="mask-type:alpha" maskUnits="userSpaceOnUse" x="0" y="0" width="70" height="70">
<rect width="70" height="70" fill="#D9D9D9"/>
</mask>
<g mask="url(#mask0_42_294)">
<path d="M11.6667 58.3334C10.0625 58.3334 8.68972 57.7627 7.54834 56.6213C6.405 55.478 5.83334 54.1042 5.83334 52.5001V17.5001C5.83334 15.8959 6.405 14.5231 7.54834 13.3817C8.68972 12.2384 10.0625 11.6667 11.6667 11.6667H58.3333C59.9375 11.6667 61.3112 12.2384 62.4546 13.3817C63.596 14.5231 64.1667 15.8959 64.1667 17.5001V52.5001C64.1667 54.1042 63.596 55.478 62.4546 56.6213C61.3112 57.7627 59.9375 58.3334 58.3333 58.3334H11.6667ZM18.9583 43.7501H22.3125V26.2501H19.6875L14.5833 29.8959L16.3333 32.5209L18.9583 30.6251V43.7501ZM28 43.7501H39.375V40.8334H32.5208L32.375 40.6876C33.3958 39.7154 34.2349 38.889 34.8921 38.2084C35.5474 37.5279 36.0694 36.9931 36.4583 36.6042C37.3333 35.7292 37.9896 34.8542 38.4271 33.9792C38.8646 33.1042 39.0833 32.1806 39.0833 31.2084C39.0833 29.7987 38.5486 28.6204 37.4792 27.6734C36.4097 26.7245 35.0486 26.2501 33.3958 26.2501C32.1319 26.2501 30.9896 26.6147 29.9688 27.3438C28.9479 28.073 28.2431 29.0209 27.8542 30.1876L30.7708 31.3542C31.0139 30.7223 31.3668 30.2236 31.8296 29.858C32.2904 29.4944 32.8125 29.3126 33.3958 29.3126C34.125 29.3126 34.72 29.507 35.1808 29.8959C35.6436 30.2848 35.875 30.7709 35.875 31.3542C35.875 31.889 35.7778 32.3867 35.5833 32.8476C35.3889 33.3104 34.9514 33.882 34.2708 34.5626L28 40.8334V43.7501ZM49.5833 43.7501C51.3333 43.7501 52.7431 43.264 53.8125 42.2917C54.8819 41.3195 55.4167 40.0556 55.4167 38.5001C55.4167 37.6251 55.1736 36.8473 54.6875 36.1667C54.2014 35.4862 53.5208 34.9515 52.6458 34.5626V34.4167C53.3264 34.0279 53.8611 33.5291 54.25 32.9205C54.6389 32.3138 54.8333 31.5973 54.8333 30.7709C54.8333 29.4584 54.3229 28.3773 53.3021 27.5276C52.2812 26.6759 50.9931 26.2501 49.4375 26.2501C48.2222 26.2501 47.0915 26.603 46.0454 27.3088C45.0013 28.0127 44.3333 28.8751 44.0417 29.8959L46.9583 31.0626C47.1528 30.4792 47.4687 30.0174 47.9062 29.6772C48.3437 29.3369 48.8542 29.1667 49.4375 29.1667C50.0694 29.1667 50.5925 29.3495 51.0067 29.7151C51.4189 30.0787 51.625 30.5279 51.625 31.0626C51.625 31.7431 51.3819 32.2779 50.8958 32.6667C50.4097 33.0556 49.7778 33.2501 49 33.2501H47.6875V36.1667H49.1458C50.1181 36.1667 50.8715 36.3612 51.4062 36.7501C51.941 37.139 52.2083 37.6737 52.2083 38.3542C52.2083 38.9862 51.941 39.5326 51.4062 39.9934C50.8715 40.4562 50.2639 40.6876 49.5833 40.6876C48.7569 40.6876 48.125 40.5048 47.6875 40.1392C47.25 39.7756 46.8611 39.132 46.5208 38.2084L43.6042 39.3751C43.9444 40.7848 44.6367 41.8669 45.6808 42.6213C46.7269 43.3738 48.0278 43.7501 49.5833 43.7501ZM11.6667 52.5001H58.3333V17.5001H11.6667V52.5001Z" fill="white"/>
</g>
</svg>
