<svg width="87" height="76" viewBox="0 0 87 76" fill="none" xmlns="http://www.w3.org/2000/svg">
<mask id="mask0_118_42" style="mask-type:alpha" maskUnits="userSpaceOnUse" x="0" y="6" width="70" height="70">
<rect y="6" width="70" height="70" fill="#D9D9D9"/>
</mask>
<g mask="url(#mask0_118_42)">
<path d="M30.625 35.1668C31.8403 35.1668 32.8728 34.7409 33.7225 33.8893C34.5742 33.0395 35 32.007 35 30.7918C35 29.5765 34.5742 28.544 33.7225 27.6943C32.8728 26.8426 31.8403 26.4168 30.625 26.4168C29.4097 26.4168 28.3772 26.8426 27.5275 27.6943C26.6758 28.544 26.25 29.5765 26.25 30.7918C26.25 32.007 26.6758 33.0395 27.5275 33.8893C28.3772 34.7409 29.4097 35.1668 30.625 35.1668ZM24.7917 49.7501C26.0069 49.7501 27.0394 49.3243 27.8892 48.4726C28.7408 47.6229 29.1667 46.5904 29.1667 45.3751C29.1667 44.1598 28.7408 43.1273 27.8892 42.2776C27.0394 41.4259 26.0069 41.0001 24.7917 41.0001C23.5764 41.0001 22.5439 41.4259 21.6942 42.2776C20.8425 43.1273 20.4167 44.1598 20.4167 45.3751C20.4167 46.5904 20.8425 47.6229 21.6942 48.4726C22.5439 49.3243 23.5764 49.7501 24.7917 49.7501ZM43.75 52.6668C44.5764 52.6668 45.2696 52.3868 45.8296 51.8268C46.3876 51.2687 46.6667 50.5765 46.6667 49.7501C46.6667 48.9237 46.3876 48.2305 45.8296 47.6705C45.2696 47.1125 44.5764 46.8334 43.75 46.8334C42.9236 46.8334 42.2314 47.1125 41.6733 47.6705C41.1133 48.2305 40.8333 48.9237 40.8333 49.7501C40.8333 50.5765 41.1133 51.2687 41.6733 51.8268C42.2314 52.3868 42.9236 52.6668 43.75 52.6668ZM35 70.1668C30.9653 70.1668 27.1736 69.4007 23.625 67.8684C20.0764 66.3382 16.9896 64.2605 14.3646 61.6355C11.7396 59.0105 9.66195 55.9237 8.13167 52.3751C6.59945 48.8265 5.83334 45.0348 5.83334 41.0001C5.83334 36.9168 6.70834 32.9307 8.45834 29.0418C10.2083 25.1529 12.6515 21.7987 15.7879 18.9793C18.9224 16.1598 22.6411 14.0939 26.9442 12.7814C31.2453 11.4689 35.9479 11.3473 41.0521 12.4168C40.6146 14.6043 40.7604 16.6576 41.4896 18.5768C42.2188 20.4979 43.3125 22.1147 44.7708 23.4272C46.2292 24.7397 47.9549 25.639 49.9479 26.1251C51.941 26.6112 54.0313 26.4897 56.2188 25.7605C54.7118 29.1147 54.9792 31.9827 57.0208 34.3647C59.0625 36.7466 61.3958 37.9862 64.0208 38.0834C64.4583 42.4098 63.9965 46.5175 62.6354 50.4064C61.2743 54.2952 59.2696 57.698 56.6213 60.6147C53.971 63.5314 50.7869 65.853 47.0692 67.5797C43.3494 69.3044 39.3264 70.1668 35 70.1668ZM35 64.3334C40.9306 64.3334 46.1932 62.2918 50.7879 58.2084C55.3807 54.1251 57.8958 48.9237 58.3333 42.6043C55.9028 41.5348 53.9953 40.0765 52.6108 38.2293C51.2244 36.382 50.2882 34.3161 49.8021 32.0314C46.059 31.4966 42.8507 29.8925 40.1771 27.2189C37.5035 24.5452 35.8507 21.3369 35.2188 17.5939C31.3299 17.4966 27.9144 18.2015 24.9725 19.7084C22.0325 21.2154 19.5786 23.1472 17.6108 25.5039C15.6411 27.8625 14.1585 30.4272 13.1629 33.198C12.1654 35.9689 11.6667 38.5695 11.6667 41.0001C11.6667 47.4654 13.9397 52.9711 18.4858 57.5172C23.03 62.0614 28.5347 64.3334 35 64.3334Z" fill="white"/>
</g>
<mask id="mask1_118_42" style="mask-type:alpha" maskUnits="userSpaceOnUse" x="52" y="0" width="35" height="33">
<rect x="52" width="35" height="33" fill="#D9D9D9"/>
</mask>
<g mask="url(#mask1_118_42)">
<path d="M61.3333 26.125L59.2917 24.2L67.4583 16.5L59.2917 8.8L61.3333 6.875L69.5 14.575L77.6667 6.875L79.7083 8.8L71.5417 16.5L79.7083 24.2L77.6667 26.125L69.5 18.425L61.3333 26.125Z" fill="white"/>
</g>
</svg>
