<svg width="70" height="70" viewBox="0 0 70 70" fill="none" xmlns="http://www.w3.org/2000/svg">
<path d="M53.5396 11.9573C49.4293 9.30539 44.1728 8.447 41.2717 8.14715C38.1668 7.82658 35.4701 7.88314 33.0982 8.22694C32.8973 8.22442 32.6974 8.21658 32.4953 8.21658C32.3411 8.21658 32.1892 8.22302 32.0342 8.2247C32.0979 8.14771 32.1422 8.10012 32.1422 8.10012C32.1422 8.10012 32.0174 8.11943 31.7725 8.2289C31.0024 8.24122 30.236 8.26754 29.4809 8.31849C30.5327 7.17957 31.3944 6.58268 31.3944 6.58268C31.3944 6.58268 30.3717 6.7305 28.5055 8.40136C27.6178 8.48199 26.7422 8.58894 25.8814 8.72193C27.8423 6.10085 29.8936 4.99721 29.8936 4.99721C29.8936 4.99721 27.4072 4.49718 23.514 8.36133C23.1883 8.68469 22.8862 9.02094 22.5939 9.36138C11.2473 12.0734 3.12651 19.3109 3.12651 27.8167C3.12651 29.4848 2.60808 31.3194 3.16704 33.1513C2.94369 36.0778 3.41931 44.0631 3.41931 44.0631C3.41931 44.0631 6.49103 60.483 18.3031 63.3379C18.4908 63.3821 15.8351 59.2447 14.6605 54.2551C16.9477 56.5531 19.6733 58.3704 22.7326 58.6853C23.1081 58.7237 20.9851 56.2664 19.1257 53.3004L45.9676 62.2331C60.0064 56.277 58.3721 56.8137 61.3863 53.589C68.0269 46.489 68.9566 42.4602 67.2837 30.5657C66.1519 22.5365 60.1521 14.5842 53.5396 11.9573Z" fill="url(#paint0_linear_42_257)"/>
<path d="M6.43047 19.4563L2.42224 41.967L4.64475 48.7686L49.011 63.3385L57.2389 28.7835L6.43047 19.4563Z" fill="#FBFBFB"/>
<path d="M6.55549 20.2219C6.77799 20.6948 6.71252 20.8068 6.57391 20.8068C6.51155 20.8068 6.43445 20.7841 6.36217 20.7617C6.28989 20.739 6.22215 20.7166 6.1785 20.7166C6.05577 20.7166 6.12493 20.8955 6.81994 21.7581C7.80294 22.9917 22.2392 44.5177 23.028 44.5177C23.0323 44.5177 23.036 44.5171 23.0394 44.516C29.7599 42.1508 58.3407 32.4611 58.3407 32.4611L55.4167 28.2534L6.55549 20.2219Z" fill="#999999"/>
<path d="M6.97479 19.6926C6.97479 19.6926 7.19021 20.7935 8.18823 22.0119C9.1803 23.2415 22.5051 43.1695 23.1738 42.9939C31.9026 40.7049 63.5721 28.5268 63.5721 28.5268L6.97479 19.6926Z" fill="#F8F8F8"/>
<path d="M47.4267 62.8192L5.26312 48.9724L5.41222 49.9453L47.8958 63.8973L47.4267 62.8192Z" fill="#999999"/>
<path d="M16.356 18.762C16.356 18.762 1.01525 23.1995 8.05438 38.6491C8.05438 38.6491 4.82677 35.7301 2.90499 31.9978C2.81854 31.8307 6.10823 20.287 6.10823 20.287L16.356 18.762Z" fill="url(#paint1_linear_42_257)"/>
<path d="M8.05444 38.6489C6.72025 38.6262 4.57682 37.5391 3.88153 36.2229C3.01248 50.5288 8.92178 58.8834 18.3033 63.3389C15.2378 62.9917 0 55.0492 0 35.9365C0 19.6851 13.0556 5.1589 33.487 4.49341C33.6123 5.40443 23.3577 7.68898 23.0298 8.76323C22.5207 10.4352 21.3507 12.2553 20.3637 13.7142C19.0264 15.6911 22.2223 17.3815 19.8736 17.914C16.3396 18.715 11.6259 18.2716 8.14996 22.7348C2.92489 29.4443 6.41158 37.1194 8.05444 38.6489Z" fill="url(#paint2_radial_42_257)"/>
<path d="M38.8459 5.01632C25.6141 4.01347 18.8042 9.24302 14.4326 15.324C12.8405 17.5374 13.0148 19.57 13.563 22.0256C13.7986 23.0738 14.0367 23.5761 13.7498 24.6447C13.5917 25.2343 13.618 25.7848 13.4216 26.1325C13.1498 26.6132 12.8037 27.1387 12.6877 28.0018C12.3981 30.1573 13.1705 30.8438 13.6532 31.5689C14.3408 30.8945 15.6841 29.3071 18.1061 28.3588C20.5282 27.4105 22.1217 25.9855 25.1572 24.4557C29.3046 22.3663 34.1657 25.5361 43.3828 22.5531C46.219 21.635 52.7371 12.0979 54.2845 11.7317C49.9752 7.02482 42.6441 5.30385 38.8459 5.01632Z" fill="url(#paint3_linear_42_257)"/>
<path d="M30.1042 2.02979C30.1042 2.02979 27.7416 3.15694 26.7127 5.19372C29.0883 4.01085 30.4673 3.36468 31.1192 3.28769C31.1192 3.28769 30.4948 3.58642 29.7204 5.21108C31.0894 4.77797 31.5608 4.505 31.9366 4.5008C31.9366 4.5008 31.8275 4.67158 31.7277 6.29316C29.6254 5.62012 25.5789 6.40431 23.4264 7.73585C22.6963 3.89046 30.1042 2.02979 30.1042 2.02979Z" fill="#3F6499"/>
<path d="M39.5064 4.43672C35.4506 3.91766 32.0603 4.01985 29.1779 4.56831C30.0844 3.7102 31.1331 3.28745 31.1331 3.28745C29.774 3.40615 28.0773 4.28246 26.6215 5.21028C25.8879 5.44153 25.189 5.70247 24.5268 5.99391C24.9322 5.46617 25.4038 4.90231 25.8647 4.46948C27.5764 2.86161 30.1181 2.02954 30.1181 2.02954C27.9486 1.8722 20.6884 3.70796 16.3196 12.4481C15.6036 13.3095 14.9355 14.1937 14.2989 15.0792C12.6555 17.3649 12.8358 19.463 13.4027 21.9987C13.6442 23.0813 13.6887 24.8096 13.4503 25.9264C13.4027 26.1501 12.7805 26.7279 12.6209 28.2859C12.4503 29.9392 13.0475 30.7508 13.6362 31.4224C15.7281 28.401 17.7918 27.8022 17.7918 27.8022C20.7199 26.6173 21.9387 25.3519 25.073 23.7726C29.3554 21.6143 44.3302 28.658 53.8463 25.5778C56.7749 24.6304 52.7191 12.3187 54.3177 11.9408C49.8679 7.08048 43.4067 4.93591 39.5064 4.43672Z" fill="url(#paint4_linear_42_257)"/>
<path d="M69.2109 30.9382C66.8651 18.8331 55.5782 7.82049 46.502 7.21016C42.4739 6.93915 43.7109 8.97928 41.1905 9.7562C30.3288 13.1044 30.1627 15.0591 30.1627 15.0591C53.1933 16.1283 53.5425 38.5945 47.3747 44.2784C49.1103 43.8786 50.9921 41.7828 52.7202 38.4926C52.5128 39.8731 52.3348 41.5666 52.0757 43.4562C51.2854 49.2221 52.309 61.2662 35.5348 69.3268C35.5348 69.3268 44.7106 68.586 49.2608 63.5266C47.4104 67.7295 42.333 69.9998 42.333 69.9998C46.0694 69.46 55.8846 66.5993 62.1369 58.8761C69.2135 50.134 71.3416 41.9326 69.2109 30.9382Z" fill="url(#paint5_linear_42_257)"/>
<path d="M46.7669 53.037C46.7669 53.037 54.2487 50.9708 56.66 46.9804C56.3675 51.6332 52.0945 56.4048 52.0945 56.4048C52.0945 56.4048 58.3411 55.1561 61.005 50.8143C60.658 54.7322 55.8488 60.0273 55.8488 60.0273C60.7655 59.1557 73.1192 51.4476 69.2113 30.9382C66.9035 18.8261 55.5787 7.82049 46.5024 7.21016C42.4743 6.93915 43.7113 8.97928 41.1909 9.7562C30.3292 13.1044 30.1631 15.0591 30.1631 15.0591C53.1937 16.1283 59.3139 28.034 47.3751 43.9607C49.1107 43.5606 49.8065 42.6185 51.1104 41.0767C51.1098 41.0767 51.7011 47.1744 46.7669 53.037Z" fill="url(#paint6_linear_42_257)"/>
<path d="M17.1795 25.977C17.1795 25.977 15.8419 26.9012 14.8734 26.6658C13.7268 26.3878 13.5327 25.2903 13.5327 25.2903C13.5074 25.5151 13.4782 25.7321 13.436 25.9267C13.3884 26.1504 12.7662 26.7282 12.6066 28.2862C12.436 29.9395 13.0644 30.897 13.6531 31.5686C15.7452 28.5472 17.7778 27.8025 17.7778 27.8025C16.9816 27.5275 17.1795 25.977 17.1795 25.977Z" fill="url(#paint7_linear_42_257)"/>
<mask id="mask0_42_257" style="mask-type:alpha" maskUnits="userSpaceOnUse" x="25" y="0" width="30" height="27">
<path d="M54.2263 0H25.8773V26.1321H54.2263V0Z" fill="url(#paint8_radial_42_257)"/>
</mask>
<g mask="url(#mask0_42_257)">
<g opacity="0.6">
<g opacity="0.2">
<path d="M46.3472 7.18131C46.6607 7.10095 47.9405 7.23842 48.7803 7.6105C49.6205 7.98258 51.0686 8.64051 49.9101 8.92664C48.7514 9.21277 48.0853 8.75502 47.5059 8.26843C46.9266 7.78184 45.5652 7.38148 46.3472 7.18131Z" fill="url(#paint9_linear_42_257)"/>
</g>
</g>
<path d="M17.3047 25.7963C17.3047 25.7963 24.6426 13.8522 31.2764 10.6289C31.8923 10.3229 22.0913 13.2021 18.1471 17.5022C15.8027 20.058 17.0442 25.0619 17.3047 25.7963Z" fill="url(#paint10_linear_42_257)"/>
<path opacity="0.1" d="M17.3047 25.796C17.3116 25.7918 17.3189 25.7876 17.326 25.7834C19.2234 24.6255 22.4751 23.9586 23.5233 21.8596C27.5587 13.7772 31.2767 10.6287 31.2767 10.6287C24.6426 13.852 17.3047 25.796 17.3047 25.796Z" fill="#F2F2F2"/>
</g>
<path d="M18.9129 22.0172C19.0907 22.0172 19.2349 21.8748 19.2349 21.6991C19.2349 21.5235 19.0907 21.3811 18.9129 21.3811C18.735 21.3811 18.5909 21.5235 18.5909 21.6991C18.5909 21.8748 18.735 22.0172 18.9129 22.0172Z" fill="white"/>
<path d="M64.7691 20.2217C59.7461 12.6692 55.7665 10.75 55.7665 10.75C55.7665 10.75 55.9494 16.2514 58.7382 18.905C59.0568 19.2082 55.4009 16.5443 55.4009 16.5443C55.4009 16.5443 54.6191 19.0853 56.4105 22.0065C55.8901 21.3236 55.5457 21.0649 55.5457 21.0649C55.5457 21.0649 52.1704 22.6022 51.1741 24.735C50.6597 23.7759 50.2739 23.2109 50.2739 23.2109C50.2739 23.2109 47.9394 27.8128 48.2328 33.1484C48.7101 41.8241 46.588 45.0203 46.588 45.0203C46.588 45.0203 52.2731 42.8659 54.9995 35.9302C56.1259 38.8791 54.9652 41.9829 54.9652 41.9829C54.9652 41.9829 59.5588 38.5927 60.5466 32.4135C61.6416 34.1577 61.3196 37.6389 61.3196 37.6389C61.3196 37.6389 64.2515 33.6067 64.323 29.2157C65.6818 30.1516 65.8068 33.8069 65.8068 33.8069C65.8068 33.8069 70.1538 28.3178 64.7691 20.2217Z" fill="url(#paint11_linear_42_257)"/>
<path d="M59.8874 14.9438C58.5747 12.5276 56.2584 10.9878 54.2224 9.74137C49.1461 6.63231 45.8814 6.19556 45.8814 6.19556C45.8814 6.19556 41.1966 7.05618 42.0013 8.34348C42.0427 8.40956 42.1393 8.49327 42.2756 8.58902C38.1662 6.71938 35.8352 11.0183 35.8352 11.0183C33.4871 10.8775 30.6279 12.0192 29.7943 15.0776C29.7079 15.3951 30.8462 15.2165 31.4318 15.3422C34.8556 16.0774 38.0786 17.6715 39.5597 18.4594C43.0047 20.2926 45.0486 23.3451 46.2286 25.6347C47.6563 28.4047 48.2394 33.279 48.2394 33.279C48.2394 33.279 51.9959 28.1821 51.0982 25.5653C52.586 26.478 52.8797 29.7343 52.8797 29.7343C52.8797 29.7343 55.3839 25.8601 54.6436 22.4856C56.5753 23.6483 56.6396 26.0135 56.6396 26.0135C56.6396 26.0135 58.6065 23.3171 57.7176 18.8947C59.6614 20.4214 60.0682 22.3991 60.0682 22.3991C60.0682 22.3991 61.6572 18.2015 59.8874 14.9438Z" fill="url(#paint12_linear_42_257)"/>
<defs>
<linearGradient id="paint0_linear_42_257" x1="56.5572" y1="58.5484" x2="11.8062" y2="13.2416" gradientUnits="userSpaceOnUse">
<stop stop-color="#130036"/>
<stop offset="0.2297" stop-color="#18023B"/>
<stop offset="0.5122" stop-color="#26094A"/>
<stop offset="0.8211" stop-color="#3D1563"/>
<stop offset="1" stop-color="#4E1D75"/>
</linearGradient>
<linearGradient id="paint1_linear_42_257" x1="2.90324" y1="28.7055" x2="16.356" y2="28.7055" gradientUnits="userSpaceOnUse">
<stop stop-color="#3156A8"/>
<stop offset="0.2474" stop-color="#3351A4"/>
<stop offset="0.5365" stop-color="#3B4397"/>
<stop offset="0.8453" stop-color="#472C82"/>
<stop offset="1" stop-color="#4E1D75"/>
</linearGradient>
<radialGradient id="paint2_radial_42_257" cx="0" cy="0" r="1" gradientUnits="userSpaceOnUse" gradientTransform="translate(16.7441 33.9161) scale(24.1629 34.6064)">
<stop offset="0.1654" stop-color="#14CDDA"/>
<stop offset="0.5478" stop-color="#2061BD"/>
<stop offset="0.6546" stop-color="#2658AC"/>
<stop offset="0.864" stop-color="#373F81"/>
<stop offset="1" stop-color="#432D62"/>
</radialGradient>
<linearGradient id="paint3_linear_42_257" x1="12.6244" y1="18.2305" x2="54.2845" y2="18.2305" gradientUnits="userSpaceOnUse">
<stop stop-color="#2061BD"/>
<stop offset="0.1846" stop-color="#2B51AC"/>
<stop offset="0.6826" stop-color="#442C84"/>
<stop offset="0.9409" stop-color="#4E1D75"/>
</linearGradient>
<linearGradient id="paint4_linear_42_257" x1="18.7566" y1="8.51745" x2="47.1054" y2="33.4668" gradientUnits="userSpaceOnUse">
<stop offset="0.0202" stop-color="#48A8E0"/>
<stop offset="0.3883" stop-color="#2061BD"/>
<stop offset="0.4968" stop-color="#2B51AC"/>
<stop offset="0.7892" stop-color="#442C84"/>
<stop offset="0.9409" stop-color="#4E1D75"/>
</linearGradient>
<linearGradient id="paint5_linear_42_257" x1="5.57708" y1="96.4863" x2="60.7961" y2="13.604" gradientUnits="userSpaceOnUse">
<stop offset="0.3787" stop-color="#3156A8"/>
<stop offset="1" stop-color="#4E1D75"/>
</linearGradient>
<linearGradient id="paint6_linear_42_257" x1="27.4222" y1="80.033" x2="57.8455" y2="10.8524" gradientUnits="userSpaceOnUse">
<stop stop-color="#29ABE2"/>
<stop offset="0.7733" stop-color="#385AA6"/>
<stop offset="0.8575" stop-color="#414293"/>
<stop offset="1" stop-color="#4E1D75"/>
</linearGradient>
<linearGradient id="paint7_linear_42_257" x1="13.6816" y1="27.7875" x2="15.3642" y2="28.7671" gradientUnits="userSpaceOnUse">
<stop stop-color="#B0DCD6"/>
<stop offset="1" stop-color="#53ACE0"/>
</linearGradient>
<radialGradient id="paint8_radial_42_257" cx="0" cy="0" r="1" gradientUnits="userSpaceOnUse" gradientTransform="translate(43.7597 21.0583) scale(14.73 14.5493)">
<stop offset="0.868" stop-color="white"/>
<stop offset="1"/>
</radialGradient>
<linearGradient id="paint9_linear_42_257" x1="49.9472" y1="8.48347" x2="46.557" y2="7.75831" gradientUnits="userSpaceOnUse">
<stop stop-color="#3092B9"/>
<stop offset="0.2199" stop-color="#258DB6"/>
<stop offset="0.6564" stop-color="#1685B1"/>
<stop offset="1" stop-color="#1082AF"/>
</linearGradient>
<linearGradient id="paint10_linear_42_257" x1="22.8979" y1="12.6669" x2="25.6266" y2="23.7469" gradientUnits="userSpaceOnUse">
<stop offset="0.0074" stop-color="#1398D1" stop-opacity="0"/>
<stop offset="0.2482" stop-color="#1187C2" stop-opacity="0.6197"/>
<stop offset="0.6422" stop-color="#3F6499" stop-opacity="0.71"/>
<stop offset="1" stop-color="#2F4282" stop-opacity="0.5"/>
</linearGradient>
<linearGradient id="paint11_linear_42_257" x1="58.45" y1="38.4558" x2="48.2374" y2="15.2331" gradientUnits="userSpaceOnUse">
<stop stop-color="#409EC3"/>
<stop offset="0.62" stop-color="#2061BD"/>
</linearGradient>
<linearGradient id="paint12_linear_42_257" x1="50.1023" y1="30.8749" x2="42.7976" y2="8.11427" gradientUnits="userSpaceOnUse">
<stop stop-color="#14B2DA"/>
<stop offset="0.4028" stop-color="#297CCC"/>
<stop offset="0.5077" stop-color="#256FC5"/>
<stop offset="0.6492" stop-color="#2164BF"/>
<stop offset="0.8162" stop-color="#2061BD"/>
<stop offset="0.9835" stop-color="#2061BD"/>
</linearGradient>
</defs>
</svg>
